<?xml version="1.0" encoding="UTF-8" standalone="no"?>
<!DOCTYPE svg PUBLIC "-//W3C//DTD SVG 1.0//EN" "http://www.w3.org/TR/2001/REC-SVG-20010904/DTD/svg10.dtd">
<!-- Создано Microsoft Visio 11.0, Экспорт SVG, версия 1.0 Ryza_logo.svg Страница-1 -->
<svg xmlns="http://www.w3.org/2000/svg" xmlns:xlink="http://www.w3.org/1999/xlink" xmlns:ev="http://www.w3.org/2001/xml-events"
		xmlns:v="http://schemas.microsoft.com/visio/2003/SVGExtensions/" width="4.93777in" height="5.89727in"
		viewBox="0 0 355.519 424.604" xml:space="preserve" color-interpolation-filters="sRGB" class="st2">
	<v:documentProperties v:langID="1049" v:metric="true" v:viewMarkup="false"/>

	<style type="text/css">
	<![CDATA[
		.st1 {fill:#000000;stroke:none;stroke-linecap:round;stroke-linejoin:round;stroke-width:0.24}
		.st2 {fill:none;fill-rule:evenodd;font-size:12;overflow:visible;stroke-linecap:square;stroke-miterlimit:3}
	]]>
	</style>

	<g v:mID="0" v:index="1" v:groupContext="foregroundPage">
		<title>Страница-1</title>
		<v:pageProperties v:drawingScale="0.0393701" v:pageScale="0.0393701" v:drawingUnits="24" v:shadowOffsetX="8.50394"
				v:shadowOffsetY="-8.50394"/>
		<g id="shape2-1" v:mID="2" v:groupContext="shape" transform="translate(0.24,-0.24)">
			<title>Лист.2</title>
			<path d="M311.67 396.66 L315.23 420.06 L355.04 401.5 L339.01 383.29 L265.63 225.92 A143.204 114.114 -180 0 0 312.86 141.22
						 A143.204 114.114 -180 0 0 194.94 28.9 L194.94 0.48 L164.51 0.48 L164.51 57.54 L187.75 57.54 A104.605 85.5855
						 0 0 1 261.51 139.32 A104.605 85.5855 0 0 1 187.75 221.1 L164.51 221.1 L164.51 308.59 L112.27 308.59 L103.65
						 302.75 L103.65 333.06 L111.71 327.61 L164.51 327.61 L164.51 354.05 L112.27 354.05 L103.65 348.21 L103.65
						 378.52 L111.71 373.06 L164.51 373.06 L164.51 397.01 A70.3703 12.3433 0 0 1 144.75 405.58 A70.3703 12.3433
						 0 0 1 94.14 409.35 L94.14 424.6 L265.32 424.6 L265.32 409.35 A70.3703 12.3433 0 0 1 214.71 405.58 A70.3703
						 12.3433 0 0 1 194.94 397.01 L194.94 373.06 L247.1 373.06 L255.81 378.96 L255.81 348.65 L247.84 354.05 L194.94
						 354.05 L194.94 327.61 L247.1 327.61 L255.81 333.5 L255.81 303.19 L247.84 308.59 L194.94 308.59 L194.94 253.54
						 A143.204 114.114 -180 0 0 239.1 241.02 L311.67 396.66 ZM69.62 53.34 L70.08 54.14 A152.713 121.722 -180 0
						 0 51.19 72.91 L50.2 72.34 L50.26 72.24 L23.91 57.02 L8.7 83.37 L8.75 83.41 L8.7 83.51 L35.17 98.79 A152.713
						 121.722 -180 0 0 27.7 123.83 L0 123.83 L0 154.53 L27.43 154.53 A143.204 114.114 -180 0 0 34.85 179.72 L8.83
						 194.75 L8.9 194.87 L8.7 194.99 L23.91 221.34 L50.26 206.13 L50.19 206.01 L51.02 205.53 A152.713 121.722
						 -180 0 0 69.9 224.35 L69.54 224.97 L69.42 224.9 L54.2 251.26 L54.32 251.33 L54.2 251.53 L80.56 266.75 L95.38
						 241.08 A152.713 121.722 -180 0 0 121.15 251.91 L121.15 278.16 L151.58 278.16 L151.58 221.1 L126.07 221.1
						 A104.605 85.5855 0 0 1 52.3 139.32 A104.605 85.5855 0 0 1 126.07 57.54 L153.1 57.54 L153.1 0.48 L122.67
						 0.48 L122.67 26.23 A152.713 121.722 -180 0 0 95.59 37.45 L80.83 11.89 L80.63 12.01 L80.56 11.89 L54.2 27.11
						 L69.42 53.46 L69.62 53.34 ZM192.13 171.58 A7.35021 7.35021 0 0 1 183.14 175.01 L166.4 168.92 A7.35021 7.35021
						 0 0 1 161.58 162.48 A22.8669 5.7381 -20 0 0 183.93 153.19 A12.7581 5.7381 55 0 1 184.58 152.53 A12.7581
						 5.7381 55 0 1 185.45 152.13 L185.47 152.12 A12.7581 5.7381 55 0 1 192.04 154.67 A7.35021 7.35021 0 0 1 194.37
						 156.89 A7.35021 7.35021 0 0 1 195.16 163.48 L192.56 170.62 A7.35021 7.35021 0 0 1 192.13 171.58 ZM122.06
						 171.58 A7.35021 7.35021 90 0 1 121.63 170.62 L119.04 163.48 A7.35021 7.35021 90 0 1 119.83 156.89 A7.35021
						 7.35021 90 0 1 122.15 154.67 A12.7581 5.7381 125 0 1 128.72 152.12 L128.75 152.13 A12.7581 5.7381 125 0
						 1 129.61 152.53 A12.7581 5.7381 125 0 1 130.27 153.19 A22.8669 5.7381 -160 0 0 152.62 162.48 A7.35021 7.35021
						 0 0 1 147.79 168.92 L131.05 175.01 A7.35021 7.35021 0 0 1 122.06 171.58 ZM156.91 73.26 A49.069 39.6863 -180
						 0 0 107.46 112.95 A49.069 39.6863 -180 0 0 111.88 129.41 L111.83 129.53 A33.52 25.6757 90 0 1 113.94 139.66
						 A12.9761 3.89282 87.97 0 1 113.92 145.02 A7.46271 2.23881 93.36 0 1 113.81 148.26 A33.52 25.6757 90 0 1
						 112.76 153.96 L108.32 161.65 A3.4929 3.4929 -90 0 0 107.99 162.4 A3.4929 3.4929 -180 0 0 107.85 163.6 A5.36744
						 5.36744 -180 0 0 108.34 166.29 L116.18 183.11 A5.36744 5.36744 -180 0 0 117.64 184.99 A5.36744 5.36744 -180
						 0 0 122.77 186.93 L135.67 184.66 L129.52 208.93 L135.23 208.93 L135.23 202.84 A1.52153 1.52153 0 0 1 136.75
						 201.32 L139.03 201.32 A1.52153 1.52153 0 0 1 140.55 202.84 L140.55 208.93 L145.12 208.93 L145.12 202.84
						 A1.52153 1.52153 0 0 1 146.64 201.32 L148.92 201.32 A1.52153 1.52153 0 0 1 150.44 202.84 L150.44 208.93
						 L155 208.93 L155 202.84 A1.52153 1.52153 0 0 1 156.53 201.32 L157.67 201.32 A1.52153 1.52153 0 0 1 159.19
						 202.84 L159.19 208.93 L163.75 208.93 L163.75 202.84 A1.52153 1.52153 0 0 1 165.28 201.32 L167.56 201.32
						 A1.52153 1.52153 0 0 1 169.08 202.84 L169.08 208.93 L173.64 208.93 L173.64 202.84 A1.52153 1.52153 0 0 1
						 175.17 201.32 L177.45 201.32 A1.52153 1.52153 0 0 1 178.97 202.84 L178.97 208.93 L184.67 208.93 L178.52
						 184.66 L191.42 186.93 A5.36744 5.36744 -180 0 0 196.56 184.99 A5.36744 5.36744 -180 0 0 198.01 183.11 L205.85
						 166.29 A5.36744 5.36744 -180 0 0 206.34 163.6 A3.4929 3.4929 -180 0 0 206.2 162.4 A3.4929 3.4929 -180 0
						 0 205.88 161.65 L201.44 153.96 A25.6757 33.52 0 0 1 200.38 148.26 A7.46271 2.23881 86.64 0 1 200.27 145.02
						 A12.9761 3.89282 92.03 0 1 200.25 139.66 A25.6757 33.52 0 0 1 202.36 129.53 L202.32 129.41 A49.069 39.6863
						 -180 0 0 206.74 112.95 A49.069 39.6863 -180 0 0 157.29 73.26 L157.1 73.26 L156.91 73.26 ZM157.1 181.3 L156.91
						 181.16 L156.91 181.45 L149.75 186.81 L149.76 186.7 A19.019 13.6937 90 0 1 157.1 171.86 A13.6937 19.019 0
						 0 1 164.43 186.7 L164.44 186.81 L157.29 181.45 L157.29 181.16 L157.1 181.3 Z" class="st1"/>
		</g>
	</g>
</svg>
