<?xml version="1.0" encoding="UTF-8" standalone="no"?>
<!DOCTYPE svg PUBLIC "-//W3C//DTD SVG 1.0//EN" "http://www.w3.org/TR/2001/REC-SVG-20010904/DTD/svg10.dtd">
<!-- Создано Microsoft Visio 11.0, Экспорт SVG, версия 1.0 bloodblast.svg Страница-1 -->
<svg xmlns="http://www.w3.org/2000/svg" xmlns:xlink="http://www.w3.org/1999/xlink" xmlns:ev="http://www.w3.org/2001/xml-events"
		xmlns:v="http://schemas.microsoft.com/visio/2003/SVGExtensions/" width="3.30553in" height="3.63603in"
		viewBox="0 0 237.998 261.794" xml:space="preserve" color-interpolation-filters="sRGB" class="st3">
	<v:documentProperties v:langID="1049" v:metric="true" v:viewMarkup="false"/>

	<style type="text/css">
	<![CDATA[
		.st1 {fill:url(#grad28-4);stroke:none;stroke-linecap:round;stroke-linejoin:round;stroke-width:0.24}
		.st2 {fill:url(#grad26-176);stroke:none;stroke-linecap:round;stroke-linejoin:round;stroke-width:0.24}
		.st3 {fill:none;fill-rule:evenodd;font-size:12;overflow:visible;stroke-linecap:square;stroke-miterlimit:3}
	]]>
	</style>

	<defs id="Patterns_And_Gradients">
		<linearGradient id="grad28-4" v:fillPattern="28" v:foreground="#f43728" v:background="#612621" x1="0" y1="0" x2="0" y2="1">
			<stop offset="0" style="stop-color:#f43728;stop-opacity:1"/>
			<stop offset="1" style="stop-color:#612621;stop-opacity:1"/>
		</linearGradient>
		<linearGradient id="grad26-176" v:fillPattern="26" v:foreground="#ff0000" v:foregroundOpacity="0.65" v:background="#f2dcda"
				v:backgroundOpacity="0.65" x1="0" y1="0" x2="1" y2="0">
			<stop offset="0" style="stop-color:#f2dcda;stop-opacity:0.65"/>
			<stop offset="0.5" style="stop-color:#ff0000;stop-opacity:0.65"/>
			<stop offset="1" style="stop-color:#f2dcda;stop-opacity:0.65"/>
		</linearGradient>
	</defs>
	<g v:mID="0" v:index="1" v:groupContext="foregroundPage">
		<title>Страница-1</title>
		<v:pageProperties v:drawingScale="0.0393701" v:pageScale="0.0393701" v:drawingUnits="24" v:shadowOffsetX="9"
				v:shadowOffsetY="-9"/>
		<g id="shape17-1" v:mID="17" v:groupContext="shape" transform="translate(59.8192,-171.598)">
			<title>Лист.17</title>
			<path d="M20.29 261.79 C15.93 251.34 13.67 235.34 0.61 234.18 C-0.21 238.28 -0.02 243.27 0.13 247.97 C0.27 252.22 0.38
						 256.24 0.28 260.02 C6.88 260.24 13.56 260.89 20.29 261.79 Z" class="st1"/>
		</g>
		<g id="shape18-5" v:mID="18" v:groupContext="shape" transform="translate(80.1046,-162.639)">
			<title>Лист.18</title>
			<path d="M20.59 259.67 C21.25 258.59 22.02 257.57 22.9 256.59 C15.23 255.19 7.58 253.85 0 252.83 C1.94 257.48 4.29 261.03
						 8.19 261.69 C11.47 262.24 15.85 260.75 20.59 259.67 Z" class="st1"/>
		</g>
		<g id="shape19-8" v:mID="19" v:groupContext="shape" transform="translate(223.396,485.54) rotate(180)">
			<title>Лист.19</title>
			<path d="M32.07 244.45 C23.09 240.2 13.74 236.86 7.36 239.53 C4.45 240.74 2.16 243.21 -0 246.19 C2.05 249.56 2.47 257.03
						 5.07 260.12 C11.8 268.11 33.07 246.87 32.07 244.45 Z" class="st1"/>
		</g>
		<g id="shape20-11" v:mID="20" v:groupContext="shape" transform="translate(233.993,298.915) rotate(180)">
			<title>Лист.20</title>
			<path d="M7.05 245.55 C4 249.99 1.55 254.8 0 259.58 C3.87 261.11 8.03 261.94 11.92 261.79 C15.8 261.65 19.43 260.55 23
						 259.25 C17.21 255.66 12.41 249.99 7.05 245.55 Z" class="st1"/>
		</g>
		<g id="shape21-14" v:mID="21" v:groupContext="shape" transform="translate(59.953,-19.0537)">
			<title>Лист.21</title>
			<path d="M0 235.2 C1.55 239.36 2.36 243.95 4.75 248.09 C8.14 253.94 14.68 258.89 22.02 261.79 C23.95 255.87 26.98 249.91
						 30.75 244.41 C25.28 239.88 19.33 236.37 11.84 236.18 C7.49 236.08 2.61 237.09 0 235.2 Z" class="st1"/>
		</g>
		<g id="shape22-17" v:mID="22" v:groupContext="shape" transform="translate(153.197,333.208) rotate(180)">
			<title>Лист.22</title>
			<path d="M0 261.79 C0.34 261.25 0.52 260.48 0.49 259.42 C0.35 260.23 0.19 261.02 0 261.79 Z" class="st1"/>
		</g>
		<g id="shape23-20" v:mID="23" v:groupContext="shape" transform="translate(169.103,306.585) rotate(180)">
			<title>Лист.23</title>
			<path d="M0 261.79 C1.16 261.79 2.31 261.75 3.43 261.64 C12.21 260.78 19.77 255.77 22.88 247.91 C23.3 246.86 23.64 245.76
						 23.92 244.62 C21.98 247.7 14.72 243.27 8.47 239.9 C7.53 239.4 6.62 238.91 5.72 238.46 C4.3 247.34 2.86 255.68
						 -0 261.79 Z" class="st1"/>
		</g>
		<g id="shape24-23" v:mID="24" v:groupContext="shape" transform="translate(36.2235,-127.535)">
			<title>Лист.24</title>
			<path d="M10.74 261.79 C19.43 252.5 35.17 250.18 48.82 250.97 C46.57 242.25 45.65 234.45 48.35 228.36 C48.65 227.66 49.01
						 226.99 49.4 226.34 C44.66 227.42 40.29 228.91 37.01 228.36 C33.1 227.7 30.75 224.15 28.81 219.5 C22.08 218.6
						 15.41 217.95 8.81 217.73 C8.63 223.79 7.9 229.23 5.82 234.03 C4.31 237.53 2.07 240.68 0 244.4 C2.81 251.05
						 6.49 256.74 10.74 261.79 Z" class="st1"/>
		</g>
		<g id="shape25-26" v:mID="25" v:groupContext="shape" transform="translate(68.484,-133.966)">
			<title>Лист.25</title>
			<path d="M17.14 247.99 C12.89 242.94 9.22 237.25 6.4 230.59 C5.97 231.36 5.55 232.15 5.15 232.98 C1.13 241.11 -1.46 252.35
						 0.9 260.47 C1 260.84 1.12 261.19 1.24 261.54 C10.01 263.07 11.17 257.36 13.65 252.82 C14.62 251.03 15.8
						 249.43 17.14 247.99 Z" class="st1"/>
		</g>
		<g id="shape26-29" v:mID="26" v:groupContext="shape" transform="translate(205.719,292.812) rotate(180)">
			<title>Лист.26</title>
			<path d="M7.99 261.79 C11.55 254.38 14.82 246.12 16.07 238.34 C11.39 237.27 7.19 237.32 2.96 238.57 C1.98 238.86 0.99
						 239.22 -0 239.64 C2.99 246.59 5.03 254.67 7.99 261.79 Z" class="st1"/>
		</g>
		<g id="shape27-32" v:mID="27" v:groupContext="shape" transform="translate(192.033,306.583) rotate(180)">
			<title>Лист.27</title>
			<path d="M0 256.26 C0.76 258.09 1.58 259.86 2.49 261.52 C7.13 261.12 12.03 261.8 16.72 261.79 C19.58 255.68 21.02 247.34
						 22.44 238.46 C17.01 235.68 12.35 233.77 8.08 232.8 C6.83 240.59 3.56 248.84 0 256.26 Z" class="st1"/>
		</g>
		<g id="shape28-35" v:mID="28" v:groupContext="shape" transform="translate(197.026,315.226) rotate(180)">
			<title>Лист.28</title>
			<path d="M3.2 255.44 C2.14 257.65 1.06 259.77 0 261.79 C1.5 261.37 3.02 261.03 4.58 260.83 C4.95 260.78 5.32 260.74 5.69
						 260.71 C4.78 259.04 3.96 257.28 3.2 255.44 Z" class="st1"/>
		</g>
		<g id="shape29-38" v:mID="29" v:groupContext="shape" transform="translate(222.493,311.866) rotate(180)">
			<title>Лист.29</title>
			<path d="M28.66 252.08 C25.71 244.96 23.66 236.88 20.68 229.93 C13.02 233.16 5.53 240.02 -0 248.09 C5.36 252.53 10.16
						 258.2 15.95 261.79 C19.12 260.64 22.25 259.34 25.47 258.43 C26.53 256.41 27.61 254.29 28.66 252.08 Z"
					class="st1"/>
		</g>
		<g id="shape30-41" v:mID="30" v:groupContext="shape" transform="translate(227.751,427.665) rotate(180)">
			<title>Лист.30</title>
			<path d="M11.08 261.01 C8.01 260.45 4.93 259.87 1.86 259.31 C1.16 260.1 0.53 260.92 0 261.79 C1.22 261.52 2.47 261.28
						 3.72 261.13 C6.2 260.85 8.71 260.94 11.08 261.01 Z" class="st1"/>
		</g>
		<g id="shape31-44" v:mID="31" v:groupContext="shape" transform="translate(176.203,424.07) rotate(180)">
			<title>Лист.31</title>
			<path d="M8.18 261.79 C9.09 261.71 9.99 261.61 10.87 261.5 C15.8 260.85 20.42 259.65 24.26 257.54 C24.55 257.38 24.82
						 257.22 25.1 257.06 C20.43 255.29 15.17 254.56 13.97 250.67 C11.29 242.03 28.69 217.79 28.84 228.93 C28.87
						 230.94 28.33 234.1 34.07 230.08 C29.37 222.64 21.18 216.62 13.19 211.73 C7.61 216.71 1.45 224.48 0.23 232.36
						 C-1.24 241.94 4.6 251.7 8.18 261.79 Z" class="st1"/>
		</g>
		<g id="shape32-47" v:mID="32" v:groupContext="shape" transform="translate(168.021,423.451) rotate(180)">
			<title>Лист.32</title>
			<path d="M0 261.17 C0.07 261.38 0.15 261.59 0.22 261.79 C1.08 261.52 1.91 261.22 2.69 260.88 C1.8 260.99 0.91 261.09
						 0 261.17 Z" class="st1"/>
		</g>
		<g id="shape33-50" v:mID="33" v:groupContext="shape" transform="translate(153.623,339.474) rotate(180)">
			<title>Лист.33</title>
			<path d="M11.66 234.73 C11.14 235.07 10.63 235.41 10.13 235.78 C5.63 239.07 2.41 243.64 -0 248.94 C6.37 252.98 11.72
						 257.85 14.4 261.79 C16.62 256.41 20.76 252.39 23.96 247.9 C21.61 241.31 17.16 237.38 11.66 234.73 Z"
					class="st1"/>
		</g>
		<g id="shape34-53" v:mID="34" v:groupContext="shape" transform="translate(142.855,360.727) rotate(180)">
			<title>Лист.34</title>
			<path d="M0 248.63 C5.5 251.28 9.95 255.21 12.3 261.79 C12.83 261.05 13.34 260.29 13.8 259.52 C16.76 254.57 18.15 248.76
						 19.52 244.64 C17.96 242.92 16.68 241.19 15.64 239.44 C11.51 243.23 5.17 245.32 -0 248.63 Z" class="st1"/>
		</g>
		<g id="shape35-56" v:mID="35" v:groupContext="shape" transform="translate(152.749,323.889) rotate(180)">
			<title>Лист.35</title>
			<path d="M7.29 223.72 C3.34 232.92 1.68 244.13 0 254.59 C0.89 255.05 1.81 255.53 2.74 256.04 C9 259.41 16.26 263.83 18.19
						 260.76 C18.38 259.99 18.54 259.2 18.68 258.39 C19.34 254.61 19.53 250.54 19.88 246.61 C16.24 242.44 12.85
						 238.12 10.3 233.15 C8.71 230.08 7.44 226.75 7.29 223.72 Z" class="st1"/>
		</g>
		<g id="shape36-59" v:mID="36" v:groupContext="shape" transform="translate(158.211,354.602) rotate(180)">
			<title>Лист.36</title>
			<path d="M0 238.9 C0.15 241.93 1.42 245.26 3.01 248.33 C5.57 253.3 8.95 257.62 12.6 261.79 C12.92 258.23 13.38 254.78
						 14.45 251.77 C14.57 251.43 14.7 251.1 14.83 250.78 C12.16 246.84 6.8 241.97 0.43 237.92 C0.29 238.25 0.14
						 238.57 -0 238.9 Z" class="st1"/>
		</g>
		<g id="shape37-62" v:mID="37" v:groupContext="shape" transform="translate(164.119,370.248) rotate(180)">
			<title>Лист.37</title>
			<path d="M0.02 260.54 C-0.01 260.95 -0.01 261.37 0.02 261.79 C0.16 261.47 0.3 261.14 0.45 260.81 C0.31 260.72 0.16 260.63
						 0.02 260.54 Z" class="st1"/>
		</g>
		<g id="shape38-65" v:mID="38" v:groupContext="shape" transform="translate(237.758,403.154) rotate(180)">
			<title>Лист.38</title>
			<path d="M50.05 241.59 C37.93 241.26 25.59 239.16 13.27 236.9 C10.9 236.83 8.39 236.74 5.91 237.02 C4.65 237.16 3.41
						 237.4 2.19 237.68 C1.87 238.21 1.58 238.75 1.34 239.31 C-0.84 244.23 -0.1 250.53 1.72 257.57 C1.98 257.58
						 2.23 257.6 2.48 257.62 C9.85 258.12 16.38 259.74 22.54 261.79 C23.36 257.94 25.03 254.44 27.65 251.89 C33.29
						 246.42 43.32 245.37 52.41 243.96 C51.62 243.16 50.84 242.37 50.05 241.59 Z" class="st1"/>
		</g>
		<g id="shape39-68" v:mID="39" v:groupContext="shape" transform="translate(179.89,421.391) rotate(180)">
			<title>Лист.39</title>
			<path d="M0 259.43 C0.79 260.21 1.57 260.99 2.36 261.79 C5.84 261.25 9.18 260.65 12.09 259.73 C12.02 259.53 11.94 259.32
						 11.87 259.11 C10.01 259.28 8.11 259.38 6.21 259.43 C4.15 259.49 2.08 259.48 0 259.43 Z" class="st1"/>
		</g>
		<g id="shape40-71" v:mID="40" v:groupContext="shape" transform="translate(216.67,423.759) rotate(180)">
			<title>Лист.40</title>
			<path d="M17.8 244.15 C18.02 245.22 18.04 246.19 17.82 246.93 C17.35 248.51 15.77 249.07 14.38 250.36 C12.62 251.99 11.16
						 254.78 8.66 256.08 C6.42 257.24 3.36 257.2 0 257.11 C12.32 259.37 24.66 261.46 36.78 261.79 C30.45 255.52
						 24.08 249.85 17.8 244.15 Z" class="st1"/>
		</g>
		<g id="shape41-74" v:mID="41" v:groupContext="shape" transform="translate(198.338,441.406) rotate(180)">
			<title>Лист.41</title>
			<path d="M1.53 244.1 C7.81 249.8 14.18 255.47 20.51 261.75 C22.59 261.81 24.66 261.81 26.72 261.76 C28.62 261.71 30.52
						 261.61 32.38 261.44 C28.79 251.34 22.96 241.59 24.43 232.01 C25.65 224.12 31.81 216.36 37.39 211.38 C36.11
						 210.6 34.84 209.85 33.59 209.12 C27.98 205.89 22.78 203.22 16.88 200.2 C19.5 218.24 14.77 229.78 3.38 237.73
						 C2.3 238.48 1.17 239.2 0 239.89 C0.74 241.34 1.27 242.8 1.53 244.1 Z" class="st1"/>
		</g>
		<g id="shape42-77" v:mID="42" v:groupContext="shape" transform="translate(217.572,441.406) rotate(180)">
			<title>Лист.42</title>
			<path d="M34.74 261.79 C28.39 255.34 22.25 248.29 16.47 239.91 C14.49 242.46 12.24 244.79 9.47 246.54 C6.63 248.34 3.24
						 249.51 0 250.76 C8.61 263.37 23.26 259.49 34.74 261.79 Z" class="st1"/>
		</g>
		<g id="shape43-80" v:mID="43" v:groupContext="shape" transform="translate(80.5757,-185.334)">
			<title>Лист.43</title>
			<path d="M22.63 249.67 C27.44 250.63 31.8 252.48 35.27 256.29 C36.72 257.88 38.02 259.82 39.02 261.79 C40.48 260.93 41.88
						 260.05 43.21 259.12 C57.31 249.27 63.18 234.98 59.93 212.63 C59.74 212.54 59.55 212.44 59.37 212.35 C56.01
						 210.63 52.46 208.81 48.86 207.11 C50.11 210.11 23.76 236.42 15.43 226.52 C12.2 222.69 11.68 213.44 9.14
						 209.26 C6.18 213.35 3.4 218.2 0 222.57 C7.16 232.94 14.76 241.67 22.63 249.67 Z" class="st1"/>
		</g>
		<g id="shape44-83" v:mID="44" v:groupContext="shape" transform="translate(179.89,399.666) rotate(180)">
			<title>Лист.44</title>
			<path d="M23.59 245.66 C15.2 250.33 5.31 254.12 0 260.05 C3.07 260.61 6.14 261.19 9.22 261.75 C12.58 261.85 15.64 261.89
						 17.88 260.73 C20.37 259.43 21.84 256.64 23.6 255.01 C24.99 253.72 26.56 253.16 27.03 251.57 C27.25 250.83
						 27.23 249.87 27.02 248.79 C25.87 247.75 24.73 246.71 23.59 245.66 Z" class="st1"/>
		</g>
		<g id="shape45-86" v:mID="45" v:groupContext="shape" transform="translate(59.8192,-181.276)">
			<title>Лист.45</title>
			<path d="M71.8 243.98 C67.05 239.62 62.35 235.19 57.75 230.51 C43.53 227.65 25.39 232.47 14.72 216.84 C8.78 219.14 3.25
						 221.65 0.94 227.2 C0.54 228.19 0.23 229.27 -0 230.42 C13.06 231.58 15.32 247.58 19.68 258.03 C27.26 259.05
						 34.9 260.39 42.58 261.79 C49.16 254.45 61.4 249.75 71.8 243.98 Z" class="st1"/>
		</g>
		<g id="shape46-89" v:mID="46" v:groupContext="shape" transform="translate(233.335,430.616) rotate(180)">
			<title>Лист.46</title>
			<path d="M11.34 261.79 C11.98 261.44 12.62 261.08 13.24 260.71 C12.43 259.12 11.38 257.55 10.21 256.26 C7.4 253.19 3.88
						 251.7 -0 250.92 C3.72 254.7 7.51 258.27 11.34 261.79 Z" class="st1"/>
		</g>
		<g id="shape47-92" v:mID="47" v:groupContext="shape" transform="translate(202.296,441.406) rotate(180)">
			<title>Лист.47</title>
			<path d="M-0 258.67 C1.14 259.71 2.28 260.75 3.43 261.79 C3.17 260.49 2.63 259.03 1.9 257.58 C1.27 257.95 0.64 258.31
						 0 258.67 Z" class="st1"/>
		</g>
		<g id="shape48-95" v:mID="48" v:groupContext="shape" transform="translate(46.1297,-96.9209)">
			<title>Лист.48</title>
			<path d="M52.91 259.67 C39.91 250.16 26.21 241.66 15.9 229.41 C14.56 230.85 13.38 232.45 12.41 234.24 C9.93 238.78 8.77
						 244.49 0 242.96 C1.98 248.54 6.32 252.64 10.99 256.92 C12.73 258.51 14.51 260.13 16.08 261.79 C25.78 257.15
						 38.91 257.73 52.91 259.67 Z" class="st1"/>
		</g>
		<g id="shape49-98" v:mID="49" v:groupContext="shape" transform="translate(71.2915,-106.051)">
			<title>Лист.49</title>
			<path d="M36.01 261.79 C35.6 256.03 33.61 249.4 31.58 243.03 C30.21 238.71 28.81 234.51 27.79 230.57 C17.83 229.99 6.34
						 231.68 0 238.47 C7.52 247.41 17.52 253.61 27.01 260.55 C27.16 260.57 27.3 260.59 27.44 260.61 C30.28 261.01
						 33.17 261.48 36.01 261.79 Z" class="st1"/>
		</g>
		<g id="shape50-101" v:mID="50" v:groupContext="shape" transform="translate(164.101,371.227) rotate(180)">
			<title>Лист.50</title>
			<path d="M10.37 246.81 C9.06 251.24 2.71 254.06 0.72 258.47 C0.29 259.42 0.06 260.45 0 261.52 C0.14 261.61 0.29 261.7
						 0.43 261.79 C2.84 256.5 6.06 251.93 10.56 248.63 C11.06 248.27 11.57 247.92 12.09 247.59 C11.53 247.31 10.95
						 247.05 10.37 246.81 Z" class="st1"/>
		</g>
		<g id="shape51-104" v:mID="51" v:groupContext="shape" transform="translate(182.941,325.345) rotate(180)">
			<title>Лист.51</title>
			<path d="M0 225.15 C4.31 229.95 9.11 234.07 11.6 239.21 C13.99 244.13 14.26 249.99 13.27 256.14 C17.54 257.11 22.2 259.01
						 27.63 261.79 C29.3 251.33 30.96 240.12 34.91 230.92 C34.89 230.5 34.89 230.08 34.91 229.67 C27.21 224.86
						 18.1 221.3 10.46 222.04 C6.74 222.41 3.37 223.79 0 225.15 Z" class="st1"/>
		</g>
		<g id="shape52-107" v:mID="52" v:groupContext="shape" transform="translate(146.218,435.193) rotate(180)">
			<title>Лист.52</title>
			<path d="M24.5 246.86 C24.28 244.68 23.86 242.56 23.16 240.53 C22.48 238.54 21.54 236.64 20.39 234.82 C14.65 238.83 15.18
						 235.68 15.16 233.67 C15 222.52 -2.4 246.77 0.28 255.41 C1.48 259.29 6.75 260.03 11.41 261.79 C17.71 258.02
						 21.84 251.83 24.5 246.86 Z" class="st1"/>
		</g>
		<g id="shape53-110" v:mID="53" v:groupContext="shape" transform="translate(74.5822,-47.5083)">
			<title>Лист.53</title>
			<path d="M0 257.82 C0.13 259.79 0.82 261.03 1.87 261.79 C1.36 260.41 0.76 259.07 0 257.82 Z" class="st1"/>
		</g>
		<g id="shape54-113" v:mID="54" v:groupContext="shape" transform="translate(59.953,-54.5457)">
			<title>Лист.54</title>
			<path d="M29.77 242.89 C19.62 244.55 8.07 244.05 0.97 243.22 C0.39 244.59 0.01 245.91 0 247.14 C-0.04 252.69 7.43 256.51
						 12.29 261.79 C16.14 257.7 19.81 253.1 24.09 248.56 C25.89 246.65 27.79 244.76 29.77 242.89 Z" class="st1"/>
		</g>
		<g id="shape55-116" v:mID="55" v:groupContext="shape" transform="translate(58.0113,-26.6813)">
			<title>Лист.55</title>
			<path d="M17.48 226.64 C15.5 228.51 13.6 230.4 11.81 232.31 C7.52 236.86 3.85 241.45 -0 245.55 C0.69 246.3 1.33 247.08
						 1.89 247.9 C2.04 248.13 2.19 248.37 2.34 248.61 C3.1 249.86 3.7 251.2 4.22 252.58 C6.83 254.47 11.7 253.46
						 16.06 253.57 C23.55 253.76 29.49 257.26 34.97 261.79 C41.81 251.8 51.09 243.31 60.58 239.3 C60.39 238.85
						 60.19 238.41 59.99 237.98 C54.83 226.55 47.32 217.94 38.85 210.55 C38.24 214.07 36.88 217.14 34.48 219.55
						 C30.73 223.33 24.43 225.5 17.48 226.64 Z" class="st1"/>
		</g>
		<g id="shape56-119" v:mID="56" v:groupContext="shape" transform="translate(75.6104,-67.7008)">
			<title>Лист.56</title>
			<path d="M49.6 244.13 C45.91 240.95 42.05 237.99 38.12 235.12 C24.11 233.19 10.98 232.61 1.29 237.25 C4.04 240.17 6.12
						 243.23 6.12 246.54 C6.12 251.24 1.94 256.45 0 261.05 C7.1 261.88 18.65 262.39 28.8 260.72 C35.1 254.78 42.25
						 249.08 49.6 244.13 Z" class="st1"/>
		</g>
		<g id="shape57-122" v:mID="57" v:groupContext="shape" transform="translate(218.398,340.56) rotate(180)">
			<title>Лист.57</title>
			<path d="M16.79 248.4 C10.86 252.4 5.08 257 -0 261.79 C5.61 260.87 10.69 259.12 13.73 256.07 C15.66 254.13 16.76 251.65
						 17.26 248.81 C17.1 248.67 16.95 248.54 16.79 248.4 Z" class="st1"/>
		</g>
		<g id="shape58-125" v:mID="58" v:groupContext="shape" transform="translate(229.084,367.344) rotate(180)">
			<title>Лист.58</title>
			<path d="M9.85 261.4 C10.08 259.68 10.1 257.83 9.96 255.9 C6.81 255.55 3.62 255.03 0.48 254.59 C0.32 254.57 0.16 254.55
						 0 254.52 C3.17 256.84 6.29 259.23 9.26 261.79 C9.46 261.66 9.65 261.53 9.85 261.4 Z" class="st1"/>
		</g>
		<g id="shape59-128" v:mID="59" v:groupContext="shape" transform="translate(219.82,366.94) rotate(180)">
			<title>Лист.59</title>
			<path d="M0.59 261 C0.39 261.13 0.2 261.26 0 261.39 C0.16 261.52 0.31 261.66 0.47 261.79 C0.51 261.53 0.55 261.27 0.59
						 261 Z" class="st1"/>
		</g>
		<g id="shape60-131" v:mID="60" v:groupContext="shape" transform="translate(219.234,367.738) rotate(180)">
			<title>Лист.60</title>
			<path d="M8.48 256.62 C5.77 256.78 2.96 256.61 0.11 256.29 C0.25 258.23 0.23 260.07 0 261.79 C2.82 259.92 5.66 258.18
						 8.48 256.62 Z" class="st1"/>
		</g>
		<g id="shape61-134" v:mID="61" v:groupContext="shape" transform="translate(205.719,339.076) rotate(180)">
			<title>Лист.61</title>
			<path d="M8.6 232.62 C5.78 234.17 2.94 235.91 0.12 237.79 C0.09 238.06 0.05 238.32 0 238.59 C6.84 244.55 12.9 251.5 17.07
						 260.73 C17.23 261.08 17.38 261.44 17.54 261.79 C18.52 261.38 19.51 261.02 20.5 260.73 C24.73 259.48 28.93
						 259.43 33.61 260.49 C34.6 254.34 34.33 248.49 31.94 243.56 C29.45 238.43 24.65 234.31 20.34 229.51 C17.78
						 230.54 15.21 231.57 12.49 232.12 C11.23 232.38 9.93 232.54 8.6 232.62 Z" class="st1"/>
		</g>
		<g id="shape62-137" v:mID="62" v:groupContext="shape" transform="translate(218.453,366.761) rotate(180)">
			<title>Лист.62</title>
			<path d="M27.69 256.87 C25.65 254.41 23.81 251.74 22.5 248.65 C20.26 243.36 19.59 236.84 20.82 231.09 C14.65 229.03 8.13
						 227.42 0.76 226.91 C0.51 226.89 0.25 226.88 0 226.86 C1.13 231.22 2.67 235.87 4.19 240.64 C6.44 247.69 8.63
						 255.03 9.09 261.41 C11.94 261.72 14.76 261.89 17.46 261.73 C20.95 259.81 24.39 258.16 27.69 256.87 Z"
					class="st1"/>
		</g>
		<g id="shape63-140" v:mID="63" v:groupContext="shape" transform="translate(205.719,371.227) rotate(180)">
			<title>Лист.63</title>
			<path d="M10.22 256.93 C6.93 258.22 3.48 259.87 0 261.79 C1.32 261.72 2.62 261.56 3.89 261.3 C6.61 260.74 9.18 259.72
						 11.74 258.68 C11.22 258.11 10.72 257.53 10.22 256.93 Z" class="st1"/>
		</g>
		<g id="shape64-143" v:mID="64" v:groupContext="shape" transform="translate(213.824,384.846) rotate(180)">
			<title>Лист.64</title>
			<path d="M17.26 251.28 C11.52 249.43 6.2 246.89 0.4 244.95 C-0.4 248.7 0.03 252.97 1.49 256.43 C2.35 258.44 3.55 260.19
						 4.88 261.79 C5 261.75 5.12 261.7 5.23 261.66 C7.59 260.76 9.82 260.15 11.66 258.67 C13.79 256.96 15.39 254.09
						 17.26 251.28 Z" class="st1"/>
		</g>
		<g id="shape65-146" v:mID="65" v:groupContext="shape" transform="translate(181.454,371.227) rotate(180)">
			<title>Лист.65</title>
			<path d="M18.94 239.43 C16.08 243.72 13.63 248.12 10.38 250.73 C7.56 253 4.14 253.93 0.53 255.31 C0.36 255.38 0.18 255.45
						 -0 255.52 C0.5 256.11 1 256.7 1.52 257.27 C4.89 255.91 8.26 254.53 11.98 254.17 C19.62 253.42 28.73 256.98
						 36.43 261.79 C36.5 260.72 36.72 259.69 37.15 258.74 C39.14 254.33 45.49 251.52 46.8 247.08 C39.43 243.97
						 30.5 242.76 22.28 240.44 C21.15 240.12 20.04 239.78 18.94 239.43 Z" class="st1"/>
		</g>
		<g id="shape66-149" v:mID="66" v:groupContext="shape" transform="translate(216.05,389.423) rotate(180)">
			<title>Лист.66</title>
			<path d="M42.37 248.22 C38.25 243.14 34.07 238.55 29.87 234.27 C20.78 235.68 10.75 236.73 5.11 242.21 C2.49 244.75 0.82
						 248.25 0 252.11 C8.89 255.07 17.02 258.97 25.81 261.79 C27.46 259.31 29.26 256.85 31.43 254.79 C34.46 251.92
						 38.22 249.82 42.37 248.22 Z" class="st1"/>
		</g>
		<g id="shape67-152" v:mID="67" v:groupContext="shape" transform="translate(191.159,386.503) rotate(180)">
			<title>Лист.67</title>
			<path d="M16.56 240.57 C12.41 242.17 8.65 244.27 5.62 247.14 C3.45 249.2 1.66 251.66 0 254.14 C1.1 254.5 2.21 254.83
						 3.34 255.15 C11.56 257.47 20.49 258.69 27.86 261.79 C27.95 261.49 28.01 261.19 28.05 260.87 C28.54 257 25.12
						 251.86 21.64 247.14 C19.96 244.86 18.27 242.67 16.56 240.57 Z" class="st1"/>
		</g>
		<g id="shape68-155" v:mID="68" v:groupContext="shape" transform="translate(165.112,408.357) rotate(180)">
			<title>Лист.68</title>
			<path d="M15.13 260.86 C12.58 257.88 11.98 253.37 10.72 248.92 C10.42 247.87 10.09 246.82 9.73 245.78 C6.82 246.7 3.48
						 247.3 -0 247.84 C4.2 252.13 8.38 256.71 12.5 261.79 C13.36 261.46 14.24 261.15 15.13 260.86 Z" class="st1"/>
		</g>
		<g id="shape69-158" v:mID="69" v:groupContext="shape" transform="translate(165.031,385.435) rotate(180)">
			<title>Лист.69</title>
			<path d="M2.63 238.85 C1.74 239.14 0.86 239.46 -0 239.79 C1.71 241.89 3.4 244.08 5.08 246.36 C8.56 251.08 11.97 256.22
						 11.49 260.09 C11.45 260.41 11.39 260.72 11.3 261.02 C11.88 261.26 12.46 261.52 13.02 261.79 C18.19 258.48
						 24.54 256.39 28.67 252.61 C27.39 250.48 26.48 248.32 25.83 246.15 C20.53 244.37 7.9 244.68 2.79 239.04 C2.74
						 238.98 2.68 238.92 2.63 238.85 Z" class="st1"/>
		</g>
		<g id="shape70-161" v:mID="70" v:groupContext="shape" transform="translate(154.93,413.694) rotate(180)">
			<title>Лист.70</title>
			<path d="M27.02 257.32 C26.34 254.16 25.37 247.59 21.59 244.13 C20.23 242.89 18.51 242.05 16.7 241.36 C16.43 241.53 16.15
						 241.69 15.86 241.84 C12.02 243.95 7.4 245.16 2.47 245.8 C1.69 246.14 0.87 246.45 0 246.72 C0.36 247.76 0.69
						 248.8 0.99 249.85 C2.25 254.3 2.85 258.82 5.4 261.79 C12.26 259.54 19.94 258.42 27.02 257.32 Z"
					class="st1"/>
		</g>
		<g id="shape71-164" v:mID="71" v:groupContext="shape" transform="translate(129.977,404.308) rotate(180)">
			<title>Лист.71</title>
			<path d="M10.32 261.79 C10.42 261.78 10.53 261.76 10.63 261.75 C10.77 258.15 11.25 254.53 11.76 250.9 C12.71 244.06 13.73
						 237.21 13.09 230.91 C10.42 235.88 6.29 242.06 0 245.84 C1.81 246.52 3.53 247.36 4.89 248.61 C8.67 252.07
						 9.64 258.63 10.32 261.79 Z" class="st1"/>
		</g>
		<g id="shape72-167" v:mID="72" v:groupContext="shape" transform="translate(140.785,411.736) rotate(180)">
			<title>Лист.72</title>
			<path d="M0 260.68 C0.1 261.12 0.19 261.5 0.28 261.79 C0.28 261.41 0.29 261.02 0.31 260.63 C0.21 260.65 0.1 260.66 0
						 260.68 Z" class="st1"/>
		</g>
		<g id="shape73-170" v:mID="73" v:groupContext="shape" transform="translate(181.454,383.956) rotate(180)">
			<title>Лист.73</title>
			<path d="M21.62 250.02 C14.54 251.12 6.86 252.25 -0 254.5 C0.05 254.56 0.11 254.62 0.17 254.69 C5.27 260.33 17.9 260.02
						 23.2 261.79 C22.16 258.28 21.84 254.72 21.89 251.14 C21.8 250.85 21.71 250.47 21.62 250.02 Z" class="st1"/>
		</g>
		<g id="shape3-173" v:mID="3" v:groupContext="shape" transform="translate(39.5003,-202.429)">
			<title>Лист.3</title>
			<path d="M20.29 261.79 C15.93 251.34 13.67 235.34 0.61 234.18 C-0.21 238.28 -0.02 243.27 0.13 247.97 C0.27 252.22 0.38
						 256.24 0.28 260.02 C6.88 260.24 13.56 260.89 20.29 261.79 Z" class="st2"/>
		</g>
		<g id="shape4-177" v:mID="4" v:groupContext="shape" transform="translate(76.5162,-165.63)">
			<title>Лист.4</title>
			<path d="M20.59 259.67 C21.25 258.59 22.02 257.57 22.9 256.59 C15.23 255.19 7.58 253.85 0 252.83 C1.94 257.48 4.29 261.03
						 8.19 261.69 C11.47 262.24 15.85 260.75 20.59 259.67 Z" class="st2"/>
		</g>
		<g id="shape5-180" v:mID="5" v:groupContext="shape" transform="translate(223.396,485.54) rotate(180)">
			<title>Лист.5</title>
			<path d="M32.07 244.45 C23.09 240.2 13.74 236.86 7.36 239.53 C4.45 240.74 2.16 243.21 -0 246.19 C2.05 249.56 2.47 257.03
						 5.07 260.12 C11.8 268.11 33.07 246.87 32.07 244.45 Z" class="st2"/>
		</g>
		<g id="shape6-183" v:mID="6" v:groupContext="shape" transform="translate(50.2311,-0.24)">
			<title>Лист.6</title>
			<path d="M8.73 241.67 C4.96 247.18 1.92 253.14 0 259.06 C4.8 260.95 9.94 261.97 14.77 261.79 C19.57 261.62 24.07 260.25
						 28.49 258.65 C21.32 254.2 15.37 247.18 8.73 241.67 Z" class="st2"/>
		</g>
		<g id="shape7-186" v:mID="7" v:groupContext="shape" transform="translate(56.3646,-22.0453)">
			<title>Лист.7</title>
			<path d="M0 235.2 C1.55 239.36 2.36 243.95 4.75 248.09 C8.14 253.94 14.68 258.89 22.02 261.79 C23.95 255.87 26.98 249.91
						 30.75 244.41 C25.28 239.88 19.33 236.37 11.84 236.18 C7.49 236.08 2.61 237.09 0 235.2 Z" class="st2"/>
		</g>
		<g id="shape8-189" v:mID="8" v:groupContext="shape" transform="translate(156.094,335.624) rotate(180)">
			<title>Лист.8</title>
			<path d="M0 261.79 C0.34 261.25 0.52 260.48 0.49 259.42 C0.35 260.23 0.19 261.02 0 261.79 Z" class="st2"/>
		</g>
		<g id="shape9-192" v:mID="9" v:groupContext="shape" transform="translate(172,309) rotate(180)">
			<title>Лист.9</title>
			<path d="M0 261.79 C1.16 261.79 2.31 261.75 3.43 261.64 C12.21 260.78 19.77 255.77 22.88 247.91 C23.3 246.86 23.64 245.76
						 23.92 244.62 C21.98 247.7 14.72 243.27 8.47 239.9 C7.53 239.4 6.62 238.91 5.72 238.46 C4.3 247.34 2.86 255.68
						 -0 261.79 Z" class="st2"/>
		</g>
		<g id="shape10-195" v:mID="10" v:groupContext="shape" transform="translate(0.24,-131.563)">
			<title>Лист.10</title>
			<path d="M10.74 261.79 C19.43 252.5 35.17 250.18 48.82 250.97 C46.57 242.25 45.65 234.45 48.35 228.36 C48.65 227.66 49.01
						 226.99 49.4 226.34 C44.66 227.42 40.29 228.91 37.01 228.36 C33.1 227.7 30.75 224.15 28.81 219.5 C22.08 218.6
						 15.41 217.95 8.81 217.73 C8.63 223.79 7.9 229.23 5.82 234.03 C4.31 237.53 2.07 240.68 0 244.4 C2.81 251.05
						 6.49 256.74 10.74 261.79 Z" class="st2"/>
		</g>
		<g id="shape11-198" v:mID="11" v:groupContext="shape" transform="translate(48.7654,-143.388)">
			<title>Лист.11</title>
			<path d="M17.14 247.99 C12.89 242.94 9.22 237.25 6.4 230.59 C5.97 231.36 5.55 232.15 5.15 232.98 C1.13 241.11 -1.46 252.35
						 0.9 260.47 C1 260.84 1.12 261.19 1.24 261.54 C10.01 263.07 11.17 257.36 13.65 252.82 C14.62 251.03 15.8
						 249.43 17.14 247.99 Z" class="st2"/>
		</g>
		<g id="shape12-201" v:mID="12" v:groupContext="shape" transform="translate(208.616,295.228) rotate(180)">
			<title>Лист.12</title>
			<path d="M7.99 261.79 C11.55 254.38 14.82 246.12 16.07 238.34 C11.39 237.27 7.19 237.32 2.96 238.57 C1.98 238.86 0.99
						 239.22 -0 239.64 C2.99 246.59 5.03 254.67 7.99 261.79 Z" class="st2"/>
		</g>
		<g id="shape13-204" v:mID="13" v:groupContext="shape" transform="translate(194.93,308.999) rotate(180)">
			<title>Лист.13</title>
			<path d="M0 256.26 C0.76 258.09 1.58 259.86 2.49 261.52 C7.13 261.12 12.03 261.8 16.72 261.79 C19.58 255.68 21.02 247.34
						 22.44 238.46 C17.01 235.68 12.35 233.77 8.08 232.8 C6.83 240.59 3.56 248.84 0 256.26 Z" class="st2"/>
		</g>
		<g id="shape14-207" v:mID="14" v:groupContext="shape" transform="translate(199.923,317.642) rotate(180)">
			<title>Лист.14</title>
			<path d="M3.2 255.44 C2.14 257.65 1.06 259.77 0 261.79 C1.5 261.37 3.02 261.03 4.58 260.83 C4.95 260.78 5.32 260.74 5.69
						 260.71 C4.78 259.04 3.96 257.28 3.2 255.44 Z" class="st2"/>
		</g>
		<g id="shape15-210" v:mID="15" v:groupContext="shape" transform="translate(225.39,314.281) rotate(180)">
			<title>Лист.15</title>
			<path d="M28.66 252.08 C25.71 244.96 23.66 236.88 20.68 229.93 C13.02 233.16 5.53 240.02 -0 248.09 C5.36 252.53 10.16
						 258.2 15.95 261.79 C19.12 260.64 22.25 259.34 25.47 258.43 C26.53 256.41 27.61 254.29 28.66 252.08 Z"
					class="st2"/>
		</g>
		<g id="shape16-213" v:mID="16" v:groupContext="shape" transform="translate(230.648,430.081) rotate(180)">
			<title>Лист.16</title>
			<path d="M11.08 261.01 C8.01 260.45 4.93 259.87 1.86 259.31 C1.16 260.1 0.53 260.92 0 261.79 C1.22 261.52 2.47 261.28
						 3.72 261.13 C6.2 260.85 8.71 260.94 11.08 261.01 Z" class="st2"/>
		</g>
		<g id="shape74-216" v:mID="74" v:groupContext="shape" transform="translate(158.615,442.345) rotate(180)">
			<title>Лист.74</title>
			<path d="M8.18 261.79 C9.09 261.71 9.99 261.61 10.87 261.5 C15.8 260.85 20.42 259.65 24.26 257.54 C24.55 257.38 24.82
						 257.22 25.1 257.06 C20.43 255.29 15.17 254.56 13.97 250.67 C11.29 242.03 28.69 217.79 28.84 228.93 C28.87
						 230.94 28.33 234.1 34.07 230.08 C29.37 222.64 21.18 216.62 13.19 211.73 C7.61 216.71 1.45 224.48 0.23 232.36
						 C-1.24 241.94 4.6 251.7 8.18 261.79 Z" class="st2"/>
		</g>
		<g id="shape75-219" v:mID="75" v:groupContext="shape" transform="translate(170.918,425.866) rotate(180)">
			<title>Лист.75</title>
			<path d="M0 261.17 C0.07 261.38 0.15 261.59 0.22 261.79 C1.08 261.52 1.91 261.22 2.69 260.88 C1.8 260.99 0.91 261.09
						 0 261.17 Z" class="st2"/>
		</g>
		<g id="shape76-222" v:mID="76" v:groupContext="shape" transform="translate(156.52,341.89) rotate(180)">
			<title>Лист.76</title>
			<path d="M11.66 234.73 C11.14 235.07 10.63 235.41 10.13 235.78 C5.63 239.07 2.41 243.64 -0 248.94 C6.37 252.98 11.72
						 257.85 14.4 261.79 C16.62 256.41 20.76 252.39 23.96 247.9 C21.61 241.31 17.16 237.38 11.66 234.73 Z"
					class="st2"/>
		</g>
		<g id="shape77-225" v:mID="77" v:groupContext="shape" transform="translate(128.293,360.727) rotate(180)">
			<title>Лист.77</title>
			<path d="M0 248.63 C5.5 251.28 9.95 255.21 12.3 261.79 C12.83 261.05 13.34 260.29 13.8 259.52 C16.76 254.57 18.15 248.76
						 19.52 244.64 C17.96 242.92 16.68 241.19 15.64 239.44 C11.51 243.23 5.17 245.32 -0 248.63 Z" class="st2"/>
		</g>
		<g id="shape78-228" v:mID="78" v:groupContext="shape" transform="translate(132.826,315.357) rotate(180)">
			<title>Лист.78</title>
			<path d="M7.29 223.72 C3.34 232.92 1.68 244.13 0 254.59 C0.89 255.05 1.81 255.53 2.74 256.04 C9 259.41 16.26 263.83 18.19
						 260.76 C18.38 259.99 18.54 259.2 18.68 258.39 C19.34 254.61 19.53 250.54 19.88 246.61 C16.24 242.44 12.85
						 238.12 10.3 233.15 C8.71 230.08 7.44 226.75 7.29 223.72 Z" class="st2"/>
		</g>
		<g id="shape79-231" v:mID="79" v:groupContext="shape" transform="translate(161.108,357.017) rotate(180)">
			<title>Лист.79</title>
			<path d="M0 238.9 C0.15 241.93 1.42 245.26 3.01 248.33 C5.57 253.3 8.95 257.62 12.6 261.79 C12.92 258.23 13.38 254.78
						 14.45 251.77 C14.57 251.43 14.7 251.1 14.83 250.78 C12.16 246.84 6.8 241.97 0.43 237.92 C0.29 238.25 0.14
						 238.57 -0 238.9 Z" class="st2"/>
		</g>
		<g id="shape80-234" v:mID="80" v:groupContext="shape" transform="translate(167.016,372.663) rotate(180)">
			<title>Лист.80</title>
			<path d="M0.02 260.54 C-0.01 260.95 -0.01 261.37 0.02 261.79 C0.16 261.47 0.3 261.14 0.45 260.81 C0.31 260.72 0.16 260.63
						 0.02 260.54 Z" class="st2"/>
		</g>
		<g id="shape81-237" v:mID="81" v:groupContext="shape" transform="translate(84.711,-137.389)">
			<title>Лист.81</title>
			<path d="M61.99 236.77 C46.98 236.35 31.7 233.76 16.44 230.96 C13.5 230.87 10.39 230.76 7.32 231.11 C5.77 231.28 4.22
						 231.58 2.71 231.93 C2.32 232.58 1.96 233.25 1.66 233.94 C-1.04 240.03 -0.12 247.84 2.13 256.56 C2.45 256.58
						 2.76 256.6 3.07 256.62 C12.2 257.25 20.29 259.25 27.92 261.79 C28.94 257.02 31.01 252.68 34.25 249.53 C41.24
						 242.75 53.65 241.45 64.91 239.7 C63.94 238.71 62.97 237.73 61.99 236.77 Z" class="st2"/>
		</g>
		<g id="shape82-240" v:mID="82" v:groupContext="shape" transform="translate(182.788,423.806) rotate(180)">
			<title>Лист.82</title>
			<path d="M0 259.43 C0.79 260.21 1.57 260.99 2.36 261.79 C5.84 261.25 9.18 260.65 12.09 259.73 C12.02 259.53 11.94 259.32
						 11.87 259.11 C10.01 259.28 8.11 259.38 6.21 259.43 C4.15 259.49 2.08 259.48 0 259.43 Z" class="st2"/>
		</g>
		<g id="shape83-243" v:mID="83" v:groupContext="shape" transform="translate(219.567,426.174) rotate(180)">
			<title>Лист.83</title>
			<path d="M17.8 244.15 C18.02 245.22 18.04 246.19 17.82 246.93 C17.35 248.51 15.77 249.07 14.38 250.36 C12.62 251.99 11.16
						 254.78 8.66 256.08 C6.42 257.24 3.36 257.2 0 257.11 C12.32 259.37 24.66 261.46 36.78 261.79 C30.45 255.52
						 24.08 249.85 17.8 244.15 Z" class="st2"/>
		</g>
		<g id="shape84-246" v:mID="84" v:groupContext="shape" transform="translate(180.488,450.167) rotate(180)">
			<title>Лист.84</title>
			<path d="M1.53 244.1 C7.81 249.8 14.18 255.47 20.51 261.75 C22.59 261.81 24.66 261.81 26.72 261.76 C28.62 261.71 30.52
						 261.61 32.38 261.44 C28.79 251.34 22.96 241.59 24.43 232.01 C25.65 224.12 31.81 216.36 37.39 211.38 C36.11
						 210.6 34.84 209.85 33.59 209.12 C27.98 205.89 22.78 203.22 16.88 200.2 C19.5 218.24 14.77 229.78 3.38 237.73
						 C2.3 238.48 1.17 239.2 0 239.89 C0.74 241.34 1.27 242.8 1.53 244.1 Z" class="st2"/>
		</g>
		<g id="shape85-249" v:mID="85" v:groupContext="shape" transform="translate(220.469,443.822) rotate(180)">
			<title>Лист.85</title>
			<path d="M34.74 261.79 C28.39 255.34 22.25 248.29 16.47 239.91 C14.49 242.46 12.24 244.79 9.47 246.54 C6.63 248.34 3.24
						 249.51 0 250.76 C8.61 263.37 23.26 259.49 34.74 261.79 Z" class="st2"/>
		</g>
		<g id="shape86-252" v:mID="86" v:groupContext="shape" transform="translate(76.9873,-188.326)">
			<title>Лист.86</title>
			<path d="M22.63 249.67 C27.44 250.63 31.8 252.48 35.27 256.29 C36.72 257.88 38.02 259.82 39.02 261.79 C40.48 260.93 41.88
						 260.05 43.21 259.12 C57.31 249.27 63.18 234.98 59.93 212.63 C59.74 212.54 59.55 212.44 59.37 212.35 C56.01
						 210.63 52.46 208.81 48.86 207.11 C50.11 210.11 23.76 236.42 15.43 226.52 C12.2 222.69 11.68 213.44 9.14
						 209.26 C6.18 213.35 3.4 218.2 0 222.57 C7.16 232.94 14.76 241.67 22.63 249.67 Z" class="st2"/>
		</g>
		<g id="shape87-255" v:mID="87" v:groupContext="shape" transform="translate(182.788,402.082) rotate(180)">
			<title>Лист.87</title>
			<path d="M23.59 245.66 C15.2 250.33 5.31 254.12 0 260.05 C3.07 260.61 6.14 261.19 9.22 261.75 C12.58 261.85 15.64 261.89
						 17.88 260.73 C20.37 259.43 21.84 256.64 23.6 255.01 C24.99 253.72 26.56 253.16 27.03 251.57 C27.25 250.83
						 27.23 249.87 27.02 248.79 C25.87 247.75 24.73 246.71 23.59 245.66 Z" class="st2"/>
		</g>
		<g id="shape88-258" v:mID="88" v:groupContext="shape" transform="translate(56.264,-216.603)">
			<title>Лист.88</title>
			<path d="M71.8 243.98 C67.05 239.62 62.35 235.19 57.75 230.51 C43.53 227.65 25.39 232.47 14.72 216.84 C8.78 219.14 3.25
						 221.65 0.94 227.2 C0.54 228.19 0.23 229.27 -0 230.42 C13.06 231.58 15.32 247.58 19.68 258.03 C27.26 259.05
						 34.9 260.39 42.58 261.79 C49.16 254.45 61.4 249.75 71.8 243.98 Z" class="st2"/>
		</g>
		<g id="shape89-261" v:mID="89" v:groupContext="shape" transform="translate(236.232,433.031) rotate(180)">
			<title>Лист.89</title>
			<path d="M11.34 261.79 C11.98 261.44 12.62 261.08 13.24 260.71 C12.43 259.12 11.38 257.55 10.21 256.26 C7.4 253.19 3.88
						 251.7 -0 250.92 C3.72 254.7 7.51 258.27 11.34 261.79 Z" class="st2"/>
		</g>
		<g id="shape90-264" v:mID="90" v:groupContext="shape" transform="translate(205.193,443.822) rotate(180)">
			<title>Лист.90</title>
			<path d="M-0 258.67 C1.14 259.71 2.28 260.75 3.43 261.79 C3.17 260.49 2.63 259.03 1.9 257.58 C1.27 257.95 0.64 258.31
						 0 258.67 Z" class="st2"/>
		</g>
		<g id="shape91-267" v:mID="91" v:groupContext="shape" transform="translate(25.0755,-96.9209)">
			<title>Лист.91</title>
			<path d="M52.91 259.67 C39.91 250.16 26.21 241.66 15.9 229.41 C14.56 230.85 13.38 232.45 12.41 234.24 C9.93 238.78 8.77
						 244.49 0 242.96 C1.98 248.54 6.32 252.64 10.99 256.92 C12.73 258.51 14.51 260.13 16.08 261.79 C25.78 257.15
						 38.91 257.73 52.91 259.67 Z" class="st2"/>
		</g>
		<g id="shape92-270" v:mID="92" v:groupContext="shape" transform="translate(67.7032,-109.043)">
			<title>Лист.92</title>
			<path d="M36.01 261.79 C35.6 256.03 33.61 249.4 31.58 243.03 C30.21 238.71 28.81 234.51 27.79 230.57 C17.83 229.99 6.34
						 231.68 0 238.47 C7.52 247.41 17.52 253.61 27.01 260.55 C27.16 260.57 27.3 260.59 27.44 260.61 C30.28 261.01
						 33.17 261.48 36.01 261.79 Z" class="st2"/>
		</g>
		<g id="shape93-273" v:mID="93" v:groupContext="shape" transform="translate(166.998,373.642) rotate(180)">
			<title>Лист.93</title>
			<path d="M10.37 246.81 C9.06 251.24 2.71 254.06 0.72 258.47 C0.29 259.42 0.06 260.45 0 261.52 C0.14 261.61 0.29 261.7
						 0.43 261.79 C2.84 256.5 6.06 251.93 10.56 248.63 C11.06 248.27 11.57 247.92 12.09 247.59 C11.53 247.31 10.95
						 247.05 10.37 246.81 Z" class="st2"/>
		</g>
		<g id="shape94-276" v:mID="94" v:groupContext="shape" transform="translate(143.686,297.883) rotate(180)">
			<title>Лист.94</title>
			<path d="M0 225.15 C4.31 229.95 9.11 234.07 11.6 239.21 C13.99 244.13 14.26 249.99 13.27 256.14 C17.54 257.11 22.2 259.01
						 27.63 261.79 C29.3 251.33 30.96 240.12 34.91 230.92 C34.89 230.5 34.89 230.08 34.91 229.67 C27.21 224.86
						 18.1 221.3 10.46 222.04 C6.74 222.41 3.37 223.79 0 225.15 Z" class="st2"/>
		</g>
		<g id="shape95-279" v:mID="95" v:groupContext="shape" transform="translate(138.522,446.636) rotate(180)">
			<title>Лист.95</title>
			<path d="M24.5 246.86 C24.28 244.68 23.86 242.56 23.16 240.53 C22.48 238.54 21.54 236.64 20.39 234.82 C14.65 238.83 15.18
						 235.68 15.16 233.67 C15 222.52 -2.4 246.77 0.28 255.41 C1.48 259.29 6.75 260.03 11.41 261.79 C17.71 258.02
						 21.84 251.83 24.5 246.86 Z" class="st2"/>
		</g>
		<g id="shape96-282" v:mID="96" v:groupContext="shape" transform="translate(70.9938,-50.4999)">
			<title>Лист.96</title>
			<path d="M0 257.82 C0.13 259.79 0.82 261.03 1.87 261.79 C1.36 260.41 0.76 259.07 0 257.82 Z" class="st2"/>
		</g>
		<g id="shape97-285" v:mID="97" v:groupContext="shape" transform="translate(56.3646,-57.5373)">
			<title>Лист.97</title>
			<path d="M29.77 242.89 C19.62 244.55 8.07 244.05 0.97 243.22 C0.39 244.59 0.01 245.91 0 247.14 C-0.04 252.69 7.43 256.51
						 12.29 261.79 C16.14 257.7 19.81 253.1 24.09 248.56 C25.89 246.65 27.79 244.76 29.77 242.89 Z" class="st2"/>
		</g>
		<g id="shape98-288" v:mID="98" v:groupContext="shape" transform="translate(5.18167,-0.24)">
			<title>Лист.98</title>
			<path d="M17.48 226.64 C15.5 228.51 13.6 230.4 11.81 232.31 C7.52 236.86 3.85 241.45 -0 245.55 C0.69 246.3 1.33 247.08
						 1.89 247.9 C2.04 248.13 2.19 248.37 2.34 248.61 C3.1 249.86 3.7 251.2 4.22 252.58 C6.83 254.47 11.7 253.46
						 16.06 253.57 C23.55 253.76 29.49 257.26 34.97 261.79 C41.81 251.8 51.09 243.31 60.58 239.3 C60.39 238.85
						 60.19 238.41 59.99 237.98 C54.83 226.55 47.32 217.94 38.85 210.55 C38.24 214.07 36.88 217.14 34.48 219.55
						 C30.73 223.33 24.43 225.5 17.48 226.64 Z" class="st2"/>
		</g>
		<g id="shape99-291" v:mID="99" v:groupContext="shape" transform="translate(63.5015,-65.4266)">
			<title>Лист.99</title>
			<path d="M49.6 244.13 C45.91 240.95 42.05 237.99 38.12 235.12 C24.11 233.19 10.98 232.61 1.29 237.25 C4.04 240.17 6.12
						 243.23 6.12 246.54 C6.12 251.24 1.94 256.45 0 261.05 C7.1 261.88 18.65 262.39 28.8 260.72 C35.1 254.78 42.25
						 249.08 49.6 244.13 Z" class="st2"/>
		</g>
		<g id="shape100-294" v:mID="100" v:groupContext="shape" transform="translate(221.295,342.975) rotate(180)">
			<title>Лист.100</title>
			<path d="M16.79 248.4 C10.86 252.4 5.08 257 -0 261.79 C5.61 260.87 10.69 259.12 13.73 256.07 C15.66 254.13 16.76 251.65
						 17.26 248.81 C17.1 248.67 16.95 248.54 16.79 248.4 Z" class="st2"/>
		</g>
		<g id="shape101-297" v:mID="101" v:groupContext="shape" transform="translate(231.981,369.759) rotate(180)">
			<title>Лист.101</title>
			<path d="M9.85 261.4 C10.08 259.68 10.1 257.83 9.96 255.9 C6.81 255.55 3.62 255.03 0.48 254.59 C0.32 254.57 0.16 254.55
						 0 254.52 C3.17 256.84 6.29 259.23 9.26 261.79 C9.46 261.66 9.65 261.53 9.85 261.4 Z" class="st2"/>
		</g>
		<g id="shape102-300" v:mID="102" v:groupContext="shape" transform="translate(222.718,369.355) rotate(180)">
			<title>Лист.102</title>
			<path d="M0.59 261 C0.39 261.13 0.2 261.26 0 261.39 C0.16 261.52 0.31 261.66 0.47 261.79 C0.51 261.53 0.55 261.27 0.59
						 261 Z" class="st2"/>
		</g>
		<g id="shape103-303" v:mID="103" v:groupContext="shape" transform="translate(222.131,370.153) rotate(180)">
			<title>Лист.103</title>
			<path d="M8.48 256.62 C5.77 256.78 2.96 256.61 0.11 256.29 C0.25 258.23 0.23 260.07 0 261.79 C2.82 259.92 5.66 258.18
						 8.48 256.62 Z" class="st2"/>
		</g>
		<g id="shape104-306" v:mID="104" v:groupContext="shape" transform="translate(172.925,318.249) rotate(180)">
			<title>Лист.104</title>
			<path d="M8.6 232.62 C5.78 234.17 2.94 235.91 0.12 237.79 C0.09 238.06 0.05 238.32 0 238.59 C6.84 244.55 12.9 251.5 17.07
						 260.73 C17.23 261.08 17.38 261.44 17.54 261.79 C18.52 261.38 19.51 261.02 20.5 260.73 C24.73 259.48 28.93
						 259.43 33.61 260.49 C34.6 254.34 34.33 248.49 31.94 243.56 C29.45 238.43 24.65 234.31 20.34 229.51 C17.78
						 230.54 15.21 231.57 12.49 232.12 C11.23 232.38 9.93 232.54 8.6 232.62 Z" class="st2"/>
		</g>
		<g id="shape105-309" v:mID="105" v:groupContext="shape" transform="translate(221.35,369.176) rotate(180)">
			<title>Лист.105</title>
			<path d="M27.69 256.87 C25.65 254.41 23.81 251.74 22.5 248.65 C20.26 243.36 19.59 236.84 20.82 231.09 C14.65 229.03 8.13
						 227.42 0.76 226.91 C0.51 226.89 0.25 226.88 0 226.86 C1.13 231.22 2.67 235.87 4.19 240.64 C6.44 247.69 8.63
						 255.03 9.09 261.41 C11.94 261.72 14.76 261.89 17.46 261.73 C20.95 259.81 24.39 258.16 27.69 256.87 Z"
					class="st2"/>
		</g>
		<g id="shape106-312" v:mID="106" v:groupContext="shape" transform="translate(208.616,373.642) rotate(180)">
			<title>Лист.106</title>
			<path d="M10.22 256.93 C6.93 258.22 3.48 259.87 0 261.79 C1.32 261.72 2.62 261.56 3.89 261.3 C6.61 260.74 9.18 259.72
						 11.74 258.68 C11.22 258.11 10.72 257.53 10.22 256.93 Z" class="st2"/>
		</g>
		<g id="shape107-315" v:mID="107" v:groupContext="shape" transform="translate(216.721,387.261) rotate(180)">
			<title>Лист.107</title>
			<path d="M17.26 251.28 C11.52 249.43 6.2 246.89 0.4 244.95 C-0.4 248.7 0.03 252.97 1.49 256.43 C2.35 258.44 3.55 260.19
						 4.88 261.79 C5 261.75 5.12 261.7 5.23 261.66 C7.59 260.76 9.82 260.15 11.66 258.67 C13.79 256.96 15.39 254.09
						 17.26 251.28 Z" class="st2"/>
		</g>
		<g id="shape108-318" v:mID="108" v:groupContext="shape" transform="translate(184.351,373.642) rotate(180)">
			<title>Лист.108</title>
			<path d="M18.94 239.43 C16.08 243.72 13.63 248.12 10.38 250.73 C7.56 253 4.14 253.93 0.53 255.31 C0.36 255.38 0.18 255.45
						 -0 255.52 C0.5 256.11 1 256.7 1.52 257.27 C4.89 255.91 8.26 254.53 11.98 254.17 C19.62 253.42 28.73 256.98
						 36.43 261.79 C36.5 260.72 36.72 259.69 37.15 258.74 C39.14 254.33 45.49 251.52 46.8 247.08 C39.43 243.97
						 30.5 242.76 22.28 240.44 C21.15 240.12 20.04 239.78 18.94 239.43 Z" class="st2"/>
		</g>
		<g id="shape109-321" v:mID="109" v:groupContext="shape" transform="translate(23.4027,-75.9793)">
			<title>Лист.109</title>
			<path d="M52.48 244.98 C47.38 238.69 42.2 233 36.99 227.7 C25.74 229.45 13.32 230.75 6.33 237.53 C3.09 240.68 1.02 245.02
						 -0 249.79 C11.01 253.47 21.08 258.29 31.97 261.79 C34.02 258.71 36.24 255.67 38.93 253.12 C42.68 249.57
						 47.34 246.96 52.48 244.98 Z" class="st2"/>
		</g>
		<g id="shape110-324" v:mID="110" v:groupContext="shape" transform="translate(120.214,379.638) rotate(180)">
			<title>Лист.110</title>
			<path d="M16.56 240.57 C12.41 242.17 8.65 244.27 5.62 247.14 C3.45 249.2 1.66 251.66 0 254.14 C1.1 254.5 2.21 254.83
						 3.34 255.15 C11.56 257.47 20.49 258.69 27.86 261.79 C27.95 261.49 28.01 261.19 28.05 260.87 C28.54 257 25.12
						 251.86 21.64 247.14 C19.96 244.86 18.27 242.67 16.56 240.57 Z" class="st2"/>
		</g>
		<g id="shape111-327" v:mID="111" v:groupContext="shape" transform="translate(168.009,410.772) rotate(180)">
			<title>Лист.111</title>
			<path d="M15.13 260.86 C12.58 257.88 11.98 253.37 10.72 248.92 C10.42 247.87 10.09 246.82 9.73 245.78 C6.82 246.7 3.48
						 247.3 -0 247.84 C4.2 252.13 8.38 256.71 12.5 261.79 C13.36 261.46 14.24 261.15 15.13 260.86 Z" class="st2"/>
		</g>
		<g id="shape112-330" v:mID="112" v:groupContext="shape" transform="translate(167.928,387.85) rotate(180)">
			<title>Лист.112</title>
			<path d="M2.63 238.85 C1.74 239.14 0.86 239.46 -0 239.79 C1.71 241.89 3.4 244.08 5.08 246.36 C8.56 251.08 11.97 256.22
						 11.49 260.09 C11.45 260.41 11.39 260.72 11.3 261.02 C11.88 261.26 12.46 261.52 13.02 261.79 C18.19 258.48
						 24.54 256.39 28.67 252.61 C27.39 250.48 26.48 248.32 25.83 246.15 C20.53 244.37 7.9 244.68 2.79 239.04 C2.74
						 238.98 2.68 238.92 2.63 238.85 Z" class="st2"/>
		</g>
		<g id="shape113-333" v:mID="113" v:groupContext="shape" transform="translate(157.827,416.109) rotate(180)">
			<title>Лист.113</title>
			<path d="M27.02 257.32 C26.34 254.16 25.37 247.59 21.59 244.13 C20.23 242.89 18.51 242.05 16.7 241.36 C16.43 241.53 16.15
						 241.69 15.86 241.84 C12.02 243.95 7.4 245.16 2.47 245.8 C1.69 246.14 0.87 246.45 0 246.72 C0.36 247.76 0.69
						 248.8 0.99 249.85 C2.25 254.3 2.85 258.82 5.4 261.79 C12.26 259.54 19.94 258.42 27.02 257.32 Z"
					class="st2"/>
		</g>
		<g id="shape114-336" v:mID="114" v:groupContext="shape" transform="translate(122.059,404.308) rotate(180)">
			<title>Лист.114</title>
			<path d="M10.32 261.79 C10.42 261.78 10.53 261.76 10.63 261.75 C10.77 258.15 11.25 254.53 11.76 250.9 C12.71 244.06 13.73
						 237.21 13.09 230.91 C10.42 235.88 6.29 242.06 0 245.84 C1.81 246.52 3.53 247.36 4.89 248.61 C8.67 252.07
						 9.64 258.63 10.32 261.79 Z" class="st2"/>
		</g>
		<g id="shape115-339" v:mID="115" v:groupContext="shape" transform="translate(143.682,414.151) rotate(180)">
			<title>Лист.115</title>
			<path d="M0 260.68 C0.1 261.12 0.19 261.5 0.28 261.79 C0.28 261.41 0.29 261.02 0.31 260.63 C0.21 260.65 0.1 260.66 0
						 260.68 Z" class="st2"/>
		</g>
		<g id="shape116-342" v:mID="116" v:groupContext="shape" transform="translate(184.351,386.372) rotate(180)">
			<title>Лист.116</title>
			<path d="M21.62 250.02 C14.54 251.12 6.86 252.25 -0 254.5 C0.05 254.56 0.11 254.62 0.17 254.69 C5.27 260.33 17.9 260.02
						 23.2 261.79 C22.16 258.28 21.84 254.72 21.89 251.14 C21.8 250.85 21.71 250.47 21.62 250.02 Z" class="st2"/>
		</g>
	</g>
</svg>
