<?xml version="1.0" encoding="UTF-8" standalone="no"?>
<!DOCTYPE svg PUBLIC "-//W3C//DTD SVG 1.0//EN" "http://www.w3.org/TR/2001/REC-SVG-20010904/DTD/svg10.dtd">
<!-- Создано Microsoft Visio 11.0, Экспорт SVG, версия 1.0 blood.svg Страница-1 -->
<svg xmlns="http://www.w3.org/2000/svg" xmlns:xlink="http://www.w3.org/1999/xlink" xmlns:ev="http://www.w3.org/2001/xml-events"
		xmlns:v="http://schemas.microsoft.com/visio/2003/SVGExtensions/" width="1.75418in" height="0.349316in"
		viewBox="0 0 126.301 25.1507" xml:space="preserve" color-interpolation-filters="sRGB" class="st2">
	<v:documentProperties v:langID="1049" v:metric="true" v:viewMarkup="false"/>

	<style type="text/css">
	<![CDATA[
		.st1 {fill:url(#grad34-4);stroke:#000000;stroke-linecap:round;stroke-linejoin:round;stroke-width:0.24}
		.st2 {fill:none;fill-rule:evenodd;font-size:12;overflow:visible;stroke-linecap:square;stroke-miterlimit:3}
	]]>
	</style>

	<defs id="Patterns_And_Gradients">
		<pattern id="grad34-4" v:fillPattern="34" v:foreground="#ff0000" v:background="#c00000" x="0" y="0" width="1" height="1"
				patternContentUnits="objectBoundingBox">
			<path d="M 0 0 L 1 0 L 1 1 z" style="fill:url(#grad30-5)"/>
			<path d="M 0 0 L 0 1 L 1 1 z" style="fill:url(#grad27-6)"/>
		</pattern>
		<linearGradient id="grad30-5" v:fillPattern="34" v:foreground="#ff0000" v:background="#c00000" x1="0" y1="1" x2="0" y2="0">
			<stop offset="0" style="stop-color:#ff0000;stop-opacity:1"/>
			<stop offset="1" style="stop-color:#c00000;stop-opacity:1"/>
		</linearGradient>
		<linearGradient id="grad27-6" v:fillPattern="34" v:foreground="#ff0000" v:background="#c00000" x1="1" y1="0" x2="0" y2="0">
			<stop offset="0" style="stop-color:#ff0000;stop-opacity:1"/>
			<stop offset="1" style="stop-color:#c00000;stop-opacity:1"/>
		</linearGradient>
	</defs>
	<g v:mID="0" v:index="1" v:groupContext="foregroundPage">
		<title>Страница-1</title>
		<v:pageProperties v:drawingScale="0.0393701" v:pageScale="0.0393701" v:drawingUnits="24" v:shadowOffsetX="9"
				v:shadowOffsetY="-9"/>
		<g id="shape1-1" v:mID="1" v:groupContext="shape" transform="translate(0.24,-0.24)">
			<title>Лист.1</title>
			<path d="M40.73 25.15 C36.35 25.06 33.72 23.54 30.81 22.55 C22.97 19.89 13.12 21.18 6.71 18.91 C1.25 16.96 -1.71 12.42
						 1.05 10.06 C3.13 8.28 8.48 7.75 12.38 6.42 C17.69 4.61 20.32 1.31 26.55 0.69 C34.19 -0.07 47.24 3.17 56.32
						 2.77 C61.4 2.55 65.25 1.2 70.49 0.69 C81.32 -0.35 98.12 2.23 98.84 5.9 C99.28 8.16 93.6 10.83 93.17 12.66
						 C92.54 15.34 103.13 16.23 113.01 17.87 C119.23 18.9 125.16 20.22 125.77 20.99 C127.11 22.67 102.5 21.62
						 84.67 22.55 C66.51 23.5 55.37 26.5 54.9 19.95 C54.73 17.56 55.97 13.92 53.48 13.18 C50.84 12.4 44 14.9 43.56
						 16.82 C42.74 20.47 64.98 22.03 40.73 25.15 Z" class="st1"/>
		</g>
	</g>
</svg>
