<?xml version="1.0" encoding="UTF-8" standalone="no"?>
<!DOCTYPE svg PUBLIC "-//W3C//DTD SVG 1.0//EN" "http://www.w3.org/TR/2001/REC-SVG-20010904/DTD/svg10.dtd">
<!-- Создано Microsoft Visio 11.0, Экспорт SVG, версия 1.0 box-health.svg Страница-1 -->
<svg xmlns="http://www.w3.org/2000/svg" xmlns:xlink="http://www.w3.org/1999/xlink" xmlns:ev="http://www.w3.org/2001/xml-events"
		xmlns:v="http://schemas.microsoft.com/visio/2003/SVGExtensions/" width="1.1982in" height="1.1982in"
		viewBox="0 0 86.2702 86.2702" xml:space="preserve" color-interpolation-filters="sRGB" class="st6">
	<v:documentProperties v:langID="1049" v:metric="true" v:viewMarkup="false"/>

	<style type="text/css">
	<![CDATA[
		.st1 {fill:#c05046;stroke:none;stroke-linecap:round;stroke-linejoin:round;stroke-width:0.24}
		.st2 {fill:#612621;stroke:none;stroke-linecap:round;stroke-linejoin:round;stroke-width:0.24}
		.st3 {fill:#923931;stroke:none;stroke-linecap:round;stroke-linejoin:round;stroke-width:0.24}
		.st4 {fill:#ede2c9;font-family:Gungsuh;font-size:4.99999em}
		.st5 {fill:none;stroke:#000000;stroke-linecap:round;stroke-linejoin:round;stroke-width:3}
		.st6 {fill:none;fill-rule:evenodd;font-size:12;overflow:visible;stroke-linecap:square;stroke-miterlimit:3}
	]]>
	</style>

	<g v:mID="0" v:index="1" v:groupContext="foregroundPage">
		<title>Страница-1</title>
		<v:pageProperties v:drawingScale="0.0393701" v:pageScale="0.0393701" v:drawingUnits="24" v:shadowOffsetX="8.50394"
				v:shadowOffsetY="-8.50394"/>
		<g id="shape4-1" v:mID="4" v:groupContext="shape" transform="translate(4.17554,-5.35108)">
			<title>Лист.4</title>
			<path d="M10.38 78.24 A8.02708 8.02708 0 0 1 8.03 72.57 L8.03 24.41 A8.02708 8.02708 0 0 1 16.05 16.38 L64.22 16.38 A8.02708
						 8.02708 0 0 1 69.89 18.73 L77.92 10.7 A8.02708 8.02708 -180 0 0 72.24 8.35 L8.03 8.35 A8.02708 8.02708 -180
						 0 0 0 16.38 L0 80.59 A8.02708 8.02708 -180 0 0 2.35 86.27 L10.38 78.24 Z" class="st1"/>
		</g>
		<g id="shape5-3" v:mID="5" v:groupContext="shape" transform="translate(6.52662,-3)">
			<title>Лист.5</title>
			<path d="M8.03 75.89 L0 83.92 A8.02708 8.02708 -180 0 0 5.68 86.27 L69.89 86.27 A8.02708 8.02708 -180 0 0 77.92 78.24
						 L77.92 14.03 A8.02708 8.02708 -180 0 0 75.57 8.35 L67.54 16.38 A8.02708 8.02708 0 0 1 69.89 22.05 L69.89
						 70.22 A8.02708 8.02708 0 0 1 61.87 78.24 L13.7 78.24 A8.02708 8.02708 0 0 1 8.03 75.89 Z" class="st2"/>
		</g>
		<g id="shape1-5" v:mID="1" v:groupContext="shape" transform="translate(12.2026,-11.027)">
			<title>Лист.1</title>
			<desc>♥</desc>
			<v:textBlock v:margins="rect(4,4,4,4)" v:tabSpace="42.5197"/>
			<v:textRect cx="32.1081" cy="54.1621" width="64.22" height="64.2161"/>
			<path d="M2.35 83.92 A8.02708 8.02708 -180 0 0 8.03 86.27 L56.19 86.27 A8.02708 8.02708 -180 0 0 64.22 78.24 L64.22 30.08
						 A8.02708 8.02708 -180 0 0 61.87 24.41 A8.02708 8.02708 -180 0 0 56.19 22.05 L8.03 22.05 A8.02708 8.02708
						 -180 0 0 0 30.08 L0 78.24 A8.02708 8.02708 -180 0 0 2.35 83.92 Z" class="st3"/>
			<text x="8.32" y="72.16" class="st4" v:langID="1033"><v:paragraph v:horizAlign="1"/><v:tabList/>♥</text>		</g>
		<g id="shape2-8" v:mID="2" v:groupContext="shape" transform="translate(3,-3)">
			<title>Лист.2</title>
			<path d="M2.94 83.33 A10.0338 10.0338 -180 0 0 10.03 86.27 L70.24 86.27 A10.0338 10.0338 -180 0 0 80.27 76.24 L80.27
						 16.03 A10.0338 10.0338 -180 0 0 77.33 8.94 A10.0338 10.0338 -180 0 0 70.24 6 L10.03 6 A10.0338 10.0338 -180
						 0 0 -0 16.03 L0 76.24 A10.0338 10.0338 -180 0 0 2.94 83.33 Z" class="st5"/>
		</g>
	</g>
</svg>
