<?xml version="1.0" encoding="UTF-8" standalone="no"?>
<!DOCTYPE svg PUBLIC "-//W3C//DTD SVG 1.0//EN" "http://www.w3.org/TR/2001/REC-SVG-20010904/DTD/svg10.dtd">
<!-- Создано Microsoft Visio 11.0, Экспорт SVG, версия 1.0 box-mystery.svg Страница-1 -->
<svg xmlns="http://www.w3.org/2000/svg" xmlns:xlink="http://www.w3.org/1999/xlink" xmlns:ev="http://www.w3.org/2001/xml-events"
		xmlns:v="http://schemas.microsoft.com/visio/2003/SVGExtensions/" width="1.1982in" height="1.1982in"
		viewBox="0 0 86.2702 86.2702" xml:space="preserve" color-interpolation-filters="sRGB" class="st8">
	<v:documentProperties v:langID="1049" v:metric="true" v:viewMarkup="false"/>

	<style type="text/css">
	<![CDATA[
		.st1 {fill:#f3a829;stroke:none;stroke-linecap:round;stroke-linejoin:round;stroke-width:0.24}
		.st2 {fill:#d68a0c;stroke:none;stroke-linecap:round;stroke-linejoin:round;stroke-width:0.24}
		.st3 {fill:#f29e13;stroke:none;stroke-linecap:round;stroke-linejoin:round;stroke-width:0.24}
		.st4 {fill:none;stroke:#000000;stroke-linecap:round;stroke-linejoin:round;stroke-width:3}
		.st5 {fill:none;stroke:none;stroke-linecap:round;stroke-linejoin:round;stroke-width:0.24}
		.st6 {fill:#262626;font-family:Gungsuh;font-size:4.99999em}
		.st7 {fill:#ede2c9;font-family:Gungsuh;font-size:4.99999em}
		.st8 {fill:none;fill-rule:evenodd;font-size:12;overflow:visible;stroke-linecap:square;stroke-miterlimit:3}
	]]>
	</style>

	<g v:mID="0" v:index="1" v:groupContext="foregroundPage">
		<title>Страница-1</title>
		<v:pageProperties v:drawingScale="0.0393701" v:pageScale="0.0393701" v:drawingUnits="24" v:shadowOffsetX="8.50394"
				v:shadowOffsetY="-8.50394"/>
		<g id="group8-1" transform="translate(3,-3)" v:mID="8" v:groupContext="group">
			<title>Лист.8</title>
			<g id="shape4-2" v:mID="4" v:groupContext="shape" transform="translate(1.17554,-2.35108)">
				<title>Лист.4</title>
				<path d="M10.38 78.24 A8.02708 8.02708 0 0 1 8.03 72.57 L8.03 24.41 A8.02708 8.02708 0 0 1 16.05 16.38 L64.22 16.38
							 A8.02708 8.02708 0 0 1 69.89 18.73 L77.92 10.7 A8.02708 8.02708 -180 0 0 72.24 8.35 L8.03 8.35 A8.02708
							 8.02708 -180 0 0 0 16.38 L0 80.59 A8.02708 8.02708 -180 0 0 2.35 86.27 L10.38 78.24 Z" class="st1"/>
			</g>
			<g id="shape5-4" v:mID="5" v:groupContext="shape" transform="translate(3.52662,0)">
				<title>Лист.5</title>
				<path d="M8.03 75.89 L0 83.92 A8.02708 8.02708 -180 0 0 5.68 86.27 L69.89 86.27 A8.02708 8.02708 -180 0 0 77.92 78.24
							 L77.92 14.03 A8.02708 8.02708 -180 0 0 75.57 8.35 L67.54 16.38 A8.02708 8.02708 0 0 1 69.89 22.05 L69.89
							 70.22 A8.02708 8.02708 0 0 1 61.87 78.24 L13.7 78.24 A8.02708 8.02708 0 0 1 8.03 75.89 Z" class="st2"/>
			</g>
			<g id="shape1-6" v:mID="1" v:groupContext="shape" transform="translate(9.20256,-8.02702)">
				<title>Лист.1</title>
				<path d="M2.35 83.92 A8.02708 8.02708 -180 0 0 8.03 86.27 L56.19 86.27 A8.02708 8.02708 -180 0 0 64.22 78.24 L64.22
							 30.08 A8.02708 8.02708 -180 0 0 61.87 24.41 A8.02708 8.02708 -180 0 0 56.19 22.05 L8.03 22.05 A8.02708
							 8.02708 -180 0 0 0 30.08 L0 78.24 A8.02708 8.02708 -180 0 0 2.35 83.92 Z" class="st3"/>
			</g>
			<g id="shape2-8" v:mID="2" v:groupContext="shape">
				<title>Лист.2</title>
				<path d="M2.94 83.33 A10.0338 10.0338 -180 0 0 10.03 86.27 L70.24 86.27 A10.0338 10.0338 -180 0 0 80.27 76.24 L80.27
							 16.03 A10.0338 10.0338 -180 0 0 77.33 8.94 A10.0338 10.0338 -180 0 0 70.24 6 L10.03 6 A10.0338 10.0338
							 -180 0 0 -0 16.03 L0 76.24 A10.0338 10.0338 -180 0 0 2.94 83.33 Z" class="st4"/>
			</g>
		</g>
		<g id="group7-10" transform="translate(14.526,-13.6548)" v:mID="7" v:groupContext="group">
			<title>Лист.7</title>
			<g id="shape6-11" v:mID="6" v:groupContext="shape" transform="translate(1.70079,-1.42109E-014)">
				<title>Лист.6</title>
				<desc>?</desc>
				<v:textBlock v:margins="rect(4,4,4,4)" v:tabSpace="42.5197"/>
				<v:textRect cx="28.3465" cy="57.9237" width="56.7" height="56.6929"/>
				<path d="M2.08 84.19 A7.08667 7.08667 -180 0 0 7.09 86.27 L49.61 86.27 A7.08667 7.08667 -180 0 0 56.69 79.18 L56.69
							 36.66 A7.08667 7.08667 -180 0 0 54.62 31.65 A7.08667 7.08667 -180 0 0 49.61 29.58 L7.09 29.58 A7.08667
							 7.08667 -180 0 0 -0 36.66 L0 79.18 A7.08667 7.08667 -180 0 0 2.08 84.19 Z" class="st5"/>
				<text x="10.86" y="75.92" class="st6" v:langID="1033"><v:paragraph v:horizAlign="1"/><v:tabList/>?</text>			</g>
			<g id="shape3-14" v:mID="3" v:groupContext="shape" transform="translate(-6.39488E-014,-2.26772)">
				<title>Лист.3</title>
				<desc>?</desc>
				<v:textBlock v:margins="rect(4,4,4,4)" v:tabSpace="42.5197"/>
				<v:textRect cx="28.3465" cy="57.9237" width="56.7" height="56.6929"/>
				<path d="M2.08 84.19 A7.08667 7.08667 -180 0 0 7.09 86.27 L49.61 86.27 A7.08667 7.08667 -180 0 0 56.69 79.18 L56.69
							 36.66 A7.08667 7.08667 -180 0 0 54.62 31.65 A7.08667 7.08667 -180 0 0 49.61 29.58 L7.09 29.58 A7.08667
							 7.08667 -180 0 0 -0 36.66 L0 79.18 A7.08667 7.08667 -180 0 0 2.08 84.19 Z" class="st5"/>
				<text x="10.86" y="75.92" class="st7" v:langID="1033"><v:paragraph v:horizAlign="1"/><v:tabList/>?</text>			</g>
		</g>
	</g>
</svg>
