<?xml version="1.0" encoding="UTF-8" standalone="no"?>
<!DOCTYPE svg PUBLIC "-//W3C//DTD SVG 1.0//EN" "http://www.w3.org/TR/2001/REC-SVG-20010904/DTD/svg10.dtd">
<!-- Создано Microsoft Visio 11.0, Экспорт SVG, версия 1.0 12ozM.svg Страница-1 -->
<svg xmlns="http://www.w3.org/2000/svg" xmlns:xlink="http://www.w3.org/1999/xlink" xmlns:ev="http://www.w3.org/2001/xml-events"
		xmlns:v="http://schemas.microsoft.com/visio/2003/SVGExtensions/" width="7.64698in" height="5.4767in"
		viewBox="0 0 550.583 394.322" xml:space="preserve" color-interpolation-filters="sRGB" class="st9">
	<v:documentProperties v:langID="1049" v:metric="true" v:viewMarkup="false"/>

	<style type="text/css">
	<![CDATA[
		.st1 {fill:#dbeef3;stroke:none;stroke-linecap:round;stroke-linejoin:round;stroke-width:2.25}
		.st2 {fill:#ffffff;stroke:none;stroke-linecap:round;stroke-linejoin:round;stroke-width:2.25}
		.st3 {fill:#7769d6;stroke:#000000;stroke-linecap:round;stroke-linejoin:round;stroke-width:2.25}
		.st4 {fill:#56de43;stroke:#000000;stroke-linecap:round;stroke-linejoin:round;stroke-width:2.25}
		.st5 {fill:#dcfdbd;stroke:#000000;stroke-linecap:round;stroke-linejoin:round;stroke-width:2.25}
		.st6 {stroke:#000000;stroke-linecap:round;stroke-linejoin:round;stroke-width:2.25}
		.st7 {fill:#dbeef3;stroke:#000000;stroke-linecap:round;stroke-linejoin:round;stroke-width:2.25}
		.st8 {fill:none;stroke:#000000;stroke-linecap:round;stroke-linejoin:round;stroke-width:6}
		.st9 {fill:none;fill-rule:evenodd;font-size:12;overflow:visible;stroke-linecap:square;stroke-miterlimit:3}
	]]>
	</style>

	<g v:mID="0" v:index="1" v:groupContext="foregroundPage">
		<title>Страница-1</title>
		<v:pageProperties v:drawingScale="0.0393701" v:pageScale="0.0393701" v:drawingUnits="24" v:shadowOffsetX="8.50394"
				v:shadowOffsetY="-8.50394"/>
		<g id="shape1-1" v:mID="1" v:groupContext="shape" transform="translate(372.245,-157.033)">
			<title>Лист.1</title>
			<path d="M5.91 381.07 L6.28 381.33 C8.84 384.74 13.58 382.76 16.86 383.11 C18.83 383.32 20.27 384.37 21.82 385.38 C22.77
						 385.99 23.76 386.58 24.94 387.22 C26.34 387.97 28 388.78 29.47 388.44 C30.72 388.14 31.81 387.02 32.88 386.93
						 C34.36 386.8 35.78 388.69 37.41 389.21 C39.15 389.76 41.15 388.73 43.09 388.58 C45.31 388.4 47.45 389.38
						 49.56 390.02 C50.85 390.41 52.13 390.68 53.32 390.36 C54.19 390.12 55 389.58 55.62 389.79 C56.43 390.08
						 56.9 391.7 58.98 392.75 C61.8 394.17 67.58 394.57 69.33 394.19 C70.96 393.83 69.1 392.8 68.83 391.46 C68.56
						 390.17 69.77 388.58 69.83 386.95 C69.87 385.78 69.3 384.58 68.61 383.54 C67.78 382.29 66.76 381.26 65.7
						 380.26 C60.31 375.17 53.9 370.79 47.04 367.8 C44.43 366.66 41.75 365.73 39.11 364.68 C34.92 363.03 30.82
						 361.1 26.5 360.15 C21.59 359.06 16.41 359.22 11.33 360.43 C7.66 361.31 4.04 362.73 1.98 365.67 C0.01 368.47
						 -0.54 372.64 0.56 375.6 C1.56 378.29 3.94 379.97 5.91 381.07 Z" class="st1"/>
		</g>
		<g id="shape2-3" v:mID="2" v:groupContext="shape" transform="translate(262.739,-138.926)">
			<title>Лист.2</title>
			<path d="M193.63 387.07 C210.98 384.28 236.65 381.73 254.55 386.47 C267 389.91 278.76 397.33 283.25 393.01 C286.51 389.87
						 285.93 380.53 277.76 377.86 C271.83 356.54 253.32 345.79 234.22 336 C195.08 315.92 153.51 299.84 115.52
						 288.1 C94.07 281.47 73.75 276.22 43.71 266.84 C27.33 261.73 8.05 255.39 2.19 268.18 C-2.12 277.58 0.81 297.29
						 3.46 307.81 C6.25 318.87 8.72 319.77 12.8 321.11 C24.15 324.81 47.93 331.89 72.5 344.23 C78.16 347.74 91.99
						 354.78 108.93 362.73 A54.7161 18.3282 9.8 0 1 193.63 387.07 Z" class="st1"/>
		</g>
		<g id="shape3-5" v:mID="3" v:groupContext="shape" transform="translate(263.5,-214.098)">
			<title>Лист.3</title>
			<path d="M10.4 386.13 C4.03 385.54 6.97 388.34 4.23 384.02 C2.17 380.78 -3.08 373.54 2.46 372.28 C7.57 371.12 21.82 375.03
						 29.85 381.23 C34.35 384.71 36.91 388.91 37.66 391.37 C40.34 400.12 20.23 386.87 10.4 386.13 Z" class="st2"/>
		</g>
		<g id="shape4-7" v:mID="4" v:groupContext="shape" transform="translate(235.606,-83.2773)">
			<title>Лист.4</title>
			<path d="M0 212.08 C4.25 179.48 13.95 164.01 30.65 148.44 C43.47 136.49 60.42 124.49 77.71 114.33 C105.12 98.24 133.38
						 86.78 165.73 89.28 C183.53 90.65 202.57 96.25 221.12 102.03 C234.16 106.09 246.96 110.24 257.96 115.67 C276.6
						 124.87 290.08 137.72 308.98 144.05 C308.98 212.08 308.98 257.44 308.98 325.47 C295.63 320.18 285.27 317.11
						 274.96 311.3 C256.83 301.08 238.83 282.41 223.94 277.28 C240.94 285.78 238.66 285.15 237.24 284.82 C230.3
						 283.22 244.13 288.88 254.02 295.86 C283.62 316.78 277.8 349.56 308.98 370.82 C308.98 373.88 310.13 378.65
						 310.5 382.39 C312.12 398.92 298.25 395.12 287.33 390.14 C280.93 387.22 275.54 383.9 270.31 380.92 C252.27
						 370.63 236.07 364.42 223.79 346.42 C217.06 336.56 211.51 323.17 202.75 314.46 C185.97 297.75 157.44 298.26
						 139.07 293.55 C125.07 289.97 116.97 283.35 103.17 270.15 C94.12 261.5 82.61 250.02 76.67 246.8 C69.04 242.67
						 70.59 252.17 53.84 249.43 C37.1 246.7 2.1 231.76 -0 212.08 Z" class="st3"/>
		</g>
		<g id="shape5-9" v:mID="5" v:groupContext="shape" transform="translate(41.7752,-22.7829)">
			<title>Лист.5</title>
			<path d="M70.52 184.69 C69.61 184.73 69.07 184.93 68.52 185.15 C61.26 188.05 53.79 194.03 45.73 201.3 C37.24 208.97 28.09
						 218.08 21.61 227.94 C15.97 236.53 12.36 245.68 9.09 255.92 C6.31 264.65 3.77 274.17 2.13 283.07 C-0.53 297.51
						 -0.83 310.33 1.98 327.83 C5 346.75 11.65 371.14 22.69 383.55 C31.92 393.93 44.23 395.93 55.36 393.25 C71.83
						 389.28 85.73 375.07 97.79 360.63 C112.37 343.17 124.24 325.35 129.86 301.88 C134.34 283.18 134.85 260.89
						 129.46 240.93 C126.46 229.79 121.61 219.37 114.78 208.95 C108.78 199.77 101.23 190.59 93.92 185.93 C87.31
						 181.72 80.88 181.21 70.52 184.69 Z" class="st4"/>
		</g>
		<g id="shape6-11" v:mID="6" v:groupContext="shape" transform="translate(113.376,-234.058)">
			<title>Лист.6</title>
			<path d="M6.01 391.43 C0.34 387.46 0.1 385.8 0.03 384.2 C-0.41 374.91 4.77 367.63 11.14 362.13 C19.29 355.1 29.39 350.99
						 39.69 348.6 C52.81 345.56 66.24 345.31 80.46 349.69 C87.05 351.73 93.81 354.76 96.61 359.2 C98.74 362.6
						 98.56 366.81 97.24 370.51 C87.67 397.42 17.97 396.93 6.01 391.43 Z" class="st4"/>
		</g>
		<g id="shape7-13" v:mID="7" v:groupContext="shape" transform="translate(85.3593,-254.989)">
			<title>Лист.7</title>
			<path d="M32.43 390.45 C19.45 387.43 8.69 382.99 3.26 386.45 C1.11 387.82 -0.21 390.43 0.03 392.02 C0.17 393.02 0.93
						 393.62 2.16 393.96 C4.89 394.73 9.94 394.24 14.51 393.17 C19.16 392.09 23.3 390.41 32.43 390.45 Z"
					class="st5"/>
		</g>
		<g id="shape8-15" v:mID="8" v:groupContext="shape" transform="translate(115.417,-259.716)">
			<title>Лист.8</title>
			<path d="M2.44 394.32 C-1.97 381.59 -0.25 369.77 6.38 365.6 C8.61 364.2 11.39 363.66 13.28 363.94 C17.29 364.53 17.3
						 368.83 15.02 373.1 C12.76 377.35 8.23 381.59 2.44 394.32 Z" class="st5"/>
		</g>
		<g id="shape9-17" v:mID="9" v:groupContext="shape" transform="translate(41.2558,-170.163) rotate(-13.707)">
			<title>Лист.9</title>
			<path d="M0 394.32 C1.54 385.58 9.48 388.25 16.89 389.69 C36.45 393.49 52.28 388.74 71.78 394.32" class="st6"/>
		</g>
		<g id="shape10-20" v:mID="10" v:groupContext="shape" transform="translate(286.659,-7.5222) rotate(28.0481)">
			<title>Лист.10</title>
			<path d="M0 394.32 C6.02 382.71 12.42 374.11 21.24 362.45 C25.81 356.41 31.04 349.54 35.52 350.67 C40.41 351.89 44.41
						 362.63 46.86 372.57 C48.99 381.17 49.96 389.17 55.68 389.71 C59.35 390.06 64.97 387.33 68.95 388.1 C73.05
						 388.89 75.39 393.38 78.37 394.32" class="st6"/>
		</g>
		<g id="shape11-23" v:mID="11" v:groupContext="shape" transform="translate(-123.833,573.283) rotate(-122.429)">
			<title>Лист.11</title>
			<path d="M0 365.4 C7.4 369.51 14.86 364.47 20.67 361.4 C22.2 360.59 23.62 359.92 24.84 358.01 C25.43 357.1 25.96 355.91
						 26.36 355.62 C27.03 355.13 27.32 357.06 27.69 358.81 C29.53 367.39 33.29 371.38 36.58 376.54 C38.71 379.89
						 40.64 383.72 42.8 387.89 C44.1 390.38 45.47 393 47.02 393.93 C47.9 394.45 48.83 394.45 49.7 393.95 C52.86
						 392.13 55.1 383.79 57.84 377.96 C60.04 373.29 62.56 370.24 63.48 365.4" class="st6"/>
		</g>
		<g id="shape12-26" v:mID="12" v:groupContext="shape" transform="translate(60.8903,758.537) rotate(-178.957)">
			<title>Лист.12</title>
			<path d="M0 394.32 C4.71 379.5 18.49 377.02 35.9 382.84 C41.81 384.82 48.14 387.75 51.12 388.97 C53.83 390.08 53.76 389.77
						 55.37 390.27 C56.71 390.69 59.21 391.68 62.08 394.32" class="st6"/>
		</g>
		<g id="shape13-29" v:mID="13" v:groupContext="shape" transform="translate(237.14,-6)">
			<title>Лист.13</title>
			<path d="M9.8 394.32 C12.98 372.38 14.71 345.35 12.07 322.39 C8.09 287.78 -5.81 262.43 2.72 220.35 C8.75 218.94 12.75
						 222.61 16.89 226.02 C27.46 234.7 39.01 241.69 52.32 248.69 C61.46 253.5 71.43 258.32 76.7 266.55 C81.95
						 274.74 82.55 286.3 84.07 296.88 C85.95 309.95 89.23 321.53 91.44 334.58 C94.55 352.88 95.57 374.07 93.43
						 394.32" class="st6"/>
		</g>
		<g id="shape14-32" v:mID="14" v:groupContext="shape" transform="translate(464.294,652.471) rotate(178.767)">
			<title>Лист.14</title>
			<path d="M0 394.32 C1.37 393.72 2.8 393.76 4.22 393.8 C48.03 394.99 88.42 393.55 133.78 394.32" class="st6"/>
		</g>
		<g id="shape15-35" v:mID="15" v:groupContext="shape" transform="translate(913.339,325.44) rotate(92.7001)">
			<title>Лист.15</title>
			<path d="M0 393.7 C14.63 396.09 27.96 390.96 41.97 389.89 C56.45 388.78 71.64 392 81.52 393.7" class="st6"/>
		</g>
		<g id="shape16-38" v:mID="16" v:groupContext="shape" transform="translate(231.621,-179.725) rotate(-1.49765)">
			<title>Лист.16</title>
			<path d="M0 393.91 C17.21 393.39 36.09 394.73 53.8 394.19 C68.77 393.74 82.9 391.95 97.19 393.91" class="st6"/>
		</g>
		<g id="shape17-41" v:mID="17" v:groupContext="shape" transform="translate(52.4639,-93.735) rotate(-35.1208)">
			<title>Лист.17</title>
			<path d="M0 392.25 C2.27 394.69 2.83 393.07 3.62 392.03 C8.13 386.09 20.12 399.19 24.94 392.25" class="st6"/>
		</g>
		<g id="shape18-44" v:mID="18" v:groupContext="shape" transform="translate(298.057,-133.374)">
			<title>Лист.18</title>
			<path d="M0 348.31 C1.06 349.55 2.13 350.83 3.31 351.97 C9.52 357.97 18.82 360.07 25.99 362.74 C35.61 366.33 41.36 370.96
						 52.35 373.23 C50.31 374.43 50.04 376.68 49.52 378.62 C47.94 384.53 44.08 387.62 41.05 394.32" class="st6"/>
		</g>
		<g id="shape19-47" v:mID="19" v:groupContext="shape" transform="translate(-33.5519,321.332) rotate(-99.4623)">
			<title>Лист.19</title>
			<path d="M0 392.13 C5.91 394.84 12.92 395.27 17.24 392.13" class="st6"/>
		</g>
		<g id="shape20-50" v:mID="20" v:groupContext="shape" transform="translate(290.882,-160.133)">
			<title>Лист.20</title>
			<path d="M0 394.32 C0.22 391.24 1.74 387.44 2.83 384.4 C5.67 385.81 9.51 385.97 11.06 388.65 C11.83 390 12.03 391.99
						 11.06 392.62 C9.52 393.61 5.07 391.19 3.69 391.49" class="st6"/>
		</g>
		<g id="shape21-53" v:mID="21" v:groupContext="shape" transform="translate(303.638,-148.795)">
			<title>Лист.21</title>
			<path d="M0 389.5 C0.54 385.48 3.11 382.39 5.67 380.15 C8.39 379.93 11.33 382.46 11.62 384.68 C11.79 385.96 11.08 387.13
						 9.07 387.38 C7.73 387.54 5.82 387.31 5.39 387.52 C5.01 387.7 5.75 388.23 6.24 388.94 C7.23 390.39 7.16 392.6
						 7.09 394.32" class="st6"/>
		</g>
		<g id="shape22-56" v:mID="22" v:groupContext="shape" transform="translate(319.637,-141.708)">
			<title>Лист.22</title>
			<path d="M6.68 394.32 C6.22 394.29 5.73 394.33 5.26 394.32 C3.42 394.3 1.91 393.63 1.01 392.34 C0.05 390.96 -0.21 388.86
						 0.16 387.09 C0.79 384.03 3.32 381.96 5.26 380.15 C7.73 379.98 8.92 381.12 10.65 381.85 C11.52 382.22 12.53
						 382.49 13.77 382.98" class="st6"/>
		</g>
		<g id="shape23-59" v:mID="23" v:groupContext="shape" transform="translate(525.958,-94.3907) rotate(31.3051)">
			<title>Лист.23</title>
			<path d="M0 393.9 C0.8 394.69 1.33 394.19 1.88 393.87 C4.45 392.39 7.36 394.78 9.2 393.9" class="st6"/>
		</g>
		<g id="shape24-62" v:mID="24" v:groupContext="shape" transform="translate(333.286,-138.873)">
			<title>Лист.24</title>
			<path d="M1.53 381.57 C1.62 382.21 2.03 382.13 2.38 382.13 C4.39 382.16 4.78 384.89 7.2 384.4 C5.9 384.31 6.09 384.98
						 6.07 385.53 C5.96 388.55 -0.31 388.15 0.12 390.07 C-0.27 391.65 0.4 391.48 0.97 391.49 C3.33 391.53 3.99
						 394.68 5.78 394.32" class="st6"/>
		</g>
		<g id="shape25-65" v:mID="25" v:groupContext="shape" transform="translate(-287.278,248.315) rotate(-69.191)">
			<title>Лист.25</title>
			<path d="M0 394.1 C7.18 394.71 12.24 393.94 17.96 394.1" class="st6"/>
		</g>
		<g id="shape26-68" v:mID="26" v:groupContext="shape" transform="translate(86.9902,-6)">
			<title>Лист.26</title>
			<path d="M46.57 394.32 C48.33 392.72 45.53 383.39 43.73 373.42 C35.83 380.14 23.17 379.12 11.99 380.5 C7.44 381.06 3.14
						 382.02 -0 378.81" class="st6"/>
		</g>
		<g id="shape27-71" v:mID="27" v:groupContext="shape" transform="translate(-100.166,684.601) rotate(-143.948)">
			<title>Лист.27</title>
			<path d="M0 392.32 C4.63 392.92 9.82 396.52 14.48 392.32" class="st6"/>
		</g>
		<g id="shape28-74" v:mID="28" v:groupContext="shape" transform="translate(-17.8389,408.702) rotate(-125.221)">
			<title>Лист.28</title>
			<path d="M0 393.52 C6.09 395.53 12.31 393.12 18.57 393.52" class="st6"/>
		</g>
		<g id="shape29-77" v:mID="29" v:groupContext="shape" transform="translate(266.787,-170.055)">
			<title>Лист.29</title>
			<path d="M127.56 347.83 C133.09 360.67 123.76 370.44 118.49 380.15 C116.6 383.62 115.24 387.09 113.95 390.35 C113.69
						 391.02 113.43 391.68 112.82 392.34 C112.16 393.05 111.08 393.76 110.55 394.32 C99.82 390.9 91.06 386.83
						 81.64 382.13 C76.54 379.59 71.25 376.87 66.05 374.2 C58.11 370.11 50.39 366.13 42.52 362.86 C38.96 361.38
						 35.38 360.05 31.46 358.89 C19.59 355.36 4.71 353.38 -0 343.3 C8.34 342.49 16.79 344.04 24.09 346.7 C28.86
						 348.44 33.14 350.65 36.85 351.8" class="st6"/>
		</g>
		<g id="shape30-80" v:mID="30" v:groupContext="shape" transform="translate(709.133,442.064) rotate(129.687)">
			<title>Лист.30</title>
			<path d="M0 394.32 C5.48 388.8 11.7 386.45 18.06 384.12 C23.24 382.23 28.51 380.36 33.2 381.51 C38.66 382.84 43.32 388.27
						 43.61 394.32" class="st6"/>
		</g>
		<g id="shape31-83" v:mID="31" v:groupContext="shape" transform="translate(710.466,459.615) rotate(132.525)">
			<title>Лист.31</title>
			<path d="M0 394.32 C8.62 387.21 17.93 384.9 26.03 381.6 C28.86 380.45 31.55 379.17 34.74 379.77 C37.49 380.29 40.62 382.22
						 41.95 384.7 C43.52 387.65 42.56 391.38 44.86 394.32" class="st6"/>
		</g>
		<g id="shape32-86" v:mID="32" v:groupContext="shape" transform="translate(723.372,465.429) rotate(132.554)">
			<title>Лист.32</title>
			<path d="M0 394.32 C9.37 389.87 18.34 383.87 27.56 383.26 C34.28 382.82 41.14 385.25 42.5 394.32" class="st6"/>
		</g>
		<g id="shape33-89" v:mID="33" v:groupContext="shape" transform="translate(722.207,483.509) rotate(135.639)">
			<title>Лист.33</title>
			<path d="M0 394.32 C6.56 390.3 11.75 388.26 17.55 386.11 C22.94 384.11 28.86 382.01 32.95 383.33 C36.87 384.6 39.12 389
						 43.3 394.32" class="st6"/>
		</g>
		<g id="shape34-92" v:mID="34" v:groupContext="shape" transform="translate(354.171,620.412) rotate(-167.071)">
			<title>Лист.34</title>
			<path d="M0 394.32 C0.14 393.02 1 392.84 1.8 392.66 C6.52 391.6 9.64 390.45 13.61 394.32" class="st6"/>
		</g>
		<g id="shape35-95" v:mID="35" v:groupContext="shape" transform="translate(656.843,-121.342) rotate(21.2584)">
			<title>Лист.35</title>
			<path d="M0 393.18 C7.01 392.65 13.44 394.54 20.18 394.32 C24.38 394.18 28.7 393.22 32.51 393.18" class="st6"/>
		</g>
		<g id="shape36-98" v:mID="36" v:groupContext="shape" transform="translate(472.129,-311.708) rotate(-3.17983)">
			<title>Лист.36</title>
			<path d="M0 386.33 C3.11 391.12 9.99 391.24 15.54 392.88 C17.51 393.46 19.32 394.24 21.13 394.32 C24.13 394.46 27.15
						 392.71 30.38 391.43 C37.02 388.79 44.56 388.15 51.1 386.33" class="st6"/>
		</g>
		<g id="shape37-101" v:mID="37" v:groupContext="shape" transform="translate(258.283,-253.47)">
			<title>Лист.37</title>
			<path d="M0 392.7 C1.2 391.68 1.7 392.44 2.27 392.98 C4.03 394.68 6.43 394.39 8.79 394.12 C14.29 393.46 19.54 392.83
						 25.51 392.7" class="st6"/>
		</g>
		<g id="shape40-104" v:mID="40" v:groupContext="shape" transform="translate(157.861,-236.258)">
			<title>Лист.40</title>
			<path d="M14.69 394.32 C12.14 391.72 8.62 390.97 6.03 389.23 C3.99 387.87 2.52 385.88 1.21 383.14 C0.46 381.57 -0.24
						 379.76 0.08 378.46 C0.34 377.38 1.29 376.65 2.34 376.05 C7.16 373.33 13.9 373.49 20.49 373.22 C31.46 372.77
						 41.97 371.14 52.16 374.19 C51.63 374.36 51.67 374.72 51.67 375.06 C51.66 376.76 50.49 377.69 49.4 378.6
						 C47.08 380.55 45.14 382.38 42.88 383.99 C41.3 385.11 39.57 386.13 37.78 387.11 C36.67 387.71 35.53 388.3
						 34.38 388.81 C32.83 389.49 31.25 390.04 29.56 390.51 C24.67 391.88 18.91 392.65 14.69 394.32 Z"
					class="st7"/>
		</g>
		<g id="shape42-106" v:mID="42" v:groupContext="shape" transform="translate(61.1247,-241.115) rotate(-22.0836)">
			<title>Лист.42</title>
			<path d="M0 394.32 C0.81 394.37 1.55 393.93 2.28 393.64 C5.66 392.3 8.88 394.32 13.01 394.32" class="st6"/>
		</g>
		<g id="shape43-109" v:mID="43" v:groupContext="shape" transform="translate(409.985,-215.895) rotate(29.7449)">
			<title>Лист.43</title>
			<path d="M0 394.32 C2.89 392.97 5.98 393.99 8.84 393.51 C9.83 393.35 10.78 393.01 11.43 394.32" class="st6"/>
		</g>
		<g id="shape44-112" v:mID="44" v:groupContext="shape" transform="translate(242.142,517.815) rotate(174.289)">
			<title>Лист.44</title>
			<path d="M0 393.29 C4.51 394.6 10.66 394.73 14.24 393.29" class="st6"/>
		</g>
		<g id="shape45-115" v:mID="45" v:groupContext="shape" transform="translate(397.956,472.39) rotate(151.033)">
			<title>Лист.45</title>
			<path d="M0 393.76 C0.57 393.59 1.19 393.58 1.78 393.6 C5.3 393.74 8.08 395.05 11.34 393.76" class="st6"/>
		</g>
		<g id="shape46-118" v:mID="46" v:groupContext="shape" transform="translate(198.482,-246.365) rotate(5.88365)">
			<title>Лист.46</title>
			<path d="M0 393.14 C13.21 395.59 27.45 393.57 41.53 393.14" class="st6"/>
		</g>
		<g id="shape47-121" v:mID="47" v:groupContext="shape" transform="translate(521.913,321.865) rotate(117.98)">
			<title>Лист.47</title>
			<path d="M0 393.81 C0.47 393.65 0.94 393.35 1.39 393.11 C3.97 391.79 5.98 392.49 8.05 393.27 C9.28 393.73 10.52 394.21
						 11.82 394.32 C13.93 394.48 16.18 393.62 18.89 393.81" class="st6"/>
		</g>
		<g id="shape48-124" v:mID="48" v:groupContext="shape" transform="translate(562.968,276.006) rotate(110.79)">
			<title>Лист.48</title>
			<path d="M0 394.08 C0.56 394.25 1.06 394.02 1.55 393.84 C4.01 392.92 6.15 393.12 8.22 393.43 C11.71 393.95 15.03 394.76
						 19.29 394.08" class="st6"/>
		</g>
		<g id="shape49-127" v:mID="49" v:groupContext="shape" transform="translate(587.807,203.85) rotate(99.89)">
			<title>Лист.49</title>
			<path d="M0 393.6 C0.85 394.02 1.75 393.73 2.6 393.6 C6.31 393.04 8.89 395.47 12.79 393.6" class="st6"/>
		</g>
		<g id="shape50-130" v:mID="50" v:groupContext="shape" transform="translate(561.186,248.245) rotate(106.445)">
			<title>Лист.50</title>
			<path d="M0 394.02 C0.7 393.98 1.38 393.73 2.05 393.54 C8.88 391.6 14.98 395.39 20.74 394.02" class="st6"/>
		</g>
		<g id="shape52-133" v:mID="52" v:groupContext="shape" transform="translate(269.907,-169.182) rotate(14.8316)">
			<title>Лист.52</title>
			<path d="M0 393.64 C0.83 394.59 1.67 394.35 2.52 394.14 C9.66 392.42 17.86 393.05 25.01 393.43 C30.11 393.7 34.67 393.85
						 39.43 393.64" class="st6"/>
		</g>
		<g id="shape53-136" v:mID="53" v:groupContext="shape" transform="translate(345.825,578.182) rotate(159.371)">
			<title>Лист.53</title>
			<path d="M0 393.3 C6.58 392.75 13.47 395.87 20.06 393.3" class="st6"/>
		</g>
		<g id="shape54-139" v:mID="54" v:groupContext="shape" transform="translate(-75.1459,507.125) rotate(-135.39)">
			<title>Лист.54</title>
			<path d="M0 393.85 C4.01 393.87 4.71 394.09 5.03 394.21 C5.59 394.42 4.98 394.33 7.31 394 C10.27 393.57 18 392.74 15.3
						 393.38 C14.87 393.48 14.18 393.62 13.97 393.85" class="st6"/>
		</g>
		<g id="shape55-142" v:mID="55" v:groupContext="shape" transform="translate(-56.1548,507.933) rotate(-139.941)">
			<title>Лист.55</title>
			<path d="M0 394.32 C0.81 394.02 1.57 394 2.31 393.96 C7.08 393.71 10.78 392.69 13.72 394.32" class="st6"/>
		</g>
		<g id="shape56-145" v:mID="56" v:groupContext="shape" transform="translate(503.208,431.916) rotate(128.354)">
			<title>Лист.56</title>
			<path d="M0 394.02 C3.09 393.33 4.29 394.74 7.91 394.19 C9.39 393.97 11.28 393.42 12.8 394.02" class="st6"/>
		</g>
		<g id="shape57-148" v:mID="57" v:groupContext="shape" transform="translate(6,-6)">
			<title>Прямоугольник</title>
			<v:userDefs>
				<v:ud v:nameU="visVersion" v:val="VT0(14):26"/>
			</v:userDefs>
			<rect x="0" y="12" width="538.583" height="382.322" class="st8"/>
		</g>
		<g id="shape58-150" v:mID="58" v:groupContext="shape" transform="translate(-112.036,280.506) rotate(-105.793)">
			<title>Лист.58</title>
			<path d="M0 394.32 L16.85 394.32" class="st6"/>
		</g>
		<g id="shape59-153" v:mID="59" v:groupContext="shape" transform="translate(267.184,-219.978)">
			<title>Лист.59</title>
			<path d="M0 392.4 L4.11 380.76 L7.62 393.13 L12.24 383.67 L15.8 394.32 L19.9 385.69" class="st6"/>
		</g>
	</g>
</svg>
